<svg width="1440" height="1382" viewBox="0 0 1440 1382" fill="none" xmlns="http://www.w3.org/2000/svg">
<path d="M635.478 472.228C561.736 456.098 484.141 453.793 408.637 468.086C402.802 469.191 399.093 474.234 400.353 479.351C401.612 484.468 407.364 487.721 413.199 486.616C485.507 472.928 559.993 475.185 630.842 490.756C800.274 527.994 941.305 639.703 995.02 785.624C1015.79 842.056 1024.62 902.146 1026.39 965.121C1026.53 970.354 1031.49 974.492 1037.46 974.363C1043.42 974.234 1048.14 969.888 1048 964.655C1046.21 900.815 1037.28 839.18 1015.99 780.885C960.208 628.117 812.807 511.016 635.478 472.228Z" fill="#F0F1F2"/>
<path d="M353.785 500.905C359.54 499.512 362.918 494.293 361.33 489.247C359.743 484.201 353.791 481.239 348.036 482.631C269.074 501.732 157.998 567.736 89.3522 655.912C89.3255 655.946 89.299 655.98 89.2728 656.015C28.9971 735.669 -8.78727 835.769 1.76201 932.901C1.77205 932.994 1.78365 933.086 1.79679 933.178C4.32502 950.914 8.56932 968.618 12.8186 986.341C21.7684 1023.67 30.7403 1061.09 23.7472 1099.11C22.7965 1104.28 26.8034 1109.14 32.6968 1109.98C38.5901 1110.81 44.1383 1107.3 45.0889 1102.13C52.3989 1062.39 43.3221 1023.63 34.2435 984.858C30.0449 966.928 25.8459 948.996 23.2672 930.965C13.3454 839.183 49.0831 743.433 107.246 666.548C173.281 581.757 280.212 518.703 353.785 500.905Z" fill="#F0F1F2"/>
<path d="M495.624 522.081C631.328 514.814 767.005 563.38 858.123 656.422C862.012 660.393 861.494 666.377 856.965 669.788C852.436 673.198 845.612 672.743 841.723 668.772C755.073 580.293 625.965 534.076 496.876 541.006C496.83 541.009 496.784 541.011 496.738 541.013C333.49 547.939 180.607 645.052 124.373 781.132C122.34 786.053 116.141 788.597 110.529 786.814C104.916 785.03 102.015 779.595 104.049 774.673C163.289 631.319 323.826 529.396 495.624 522.081Z" fill="#F0F1F2"/>
<path d="M891.052 697.83C887.724 693.484 881.009 692.327 876.053 695.246C871.098 698.164 869.778 704.053 873.106 708.399C923.619 774.354 944.505 846.126 952.762 931.298C953.268 936.514 958.499 940.383 964.447 939.94C970.396 939.496 974.807 934.909 974.302 929.693C965.865 842.659 944.326 767.39 891.052 697.83Z" fill="#F0F1F2"/>
<path d="M967.076 969.934C973.034 969.608 978.165 973.578 978.538 978.803C982.611 1035.96 982.649 1100.62 975.439 1148.41C974.656 1153.6 969.224 1157.25 963.306 1156.56C957.388 1155.87 953.225 1151.11 954.008 1145.92C960.957 1099.86 960.995 1036.57 956.962 979.985C956.59 974.761 961.118 970.261 967.076 969.934Z" fill="#F0F1F2"/>
<path d="M108.051 827.04C109.452 821.951 105.884 816.83 100.081 815.602C94.2781 814.373 88.4383 817.502 87.0372 822.591C79.1038 851.404 74.9853 881.004 74.8221 910.631C74.654 941.167 81.1471 970.974 87.6427 1000.79C92.9563 1025.19 98.2716 1049.59 99.9436 1074.4C102.14 1107 94.3214 1139.64 80.8108 1170.71C78.6838 1175.6 81.4812 1181.07 87.0589 1182.94C92.6367 1184.8 98.8826 1182.35 101.01 1177.46C115.29 1144.62 123.947 1109.25 121.524 1073.28C119.863 1048.64 114.548 1024.38 109.235 1000.13C102.753 970.541 96.2729 940.966 96.4395 910.722C96.5945 882.571 100.509 854.433 108.051 827.04Z" fill="#F0F1F2"/>
<path d="M391.67 616.412C393.895 621.27 391.207 626.789 385.668 628.74C273.611 668.202 189.462 757.251 172.296 862.261C165.124 906.132 172.872 949.589 180.619 993.034C184.981 1017.5 189.343 1041.96 191.039 1066.49C194.716 1119.69 187.806 1178.11 148.329 1231.27C145.072 1235.66 138.376 1236.9 133.373 1234.04C128.371 1231.19 126.956 1225.32 130.214 1220.93C166.182 1172.5 172.99 1118.7 169.461 1067.64C167.74 1042.75 163.405 1018.01 159.074 993.275C151.302 948.904 143.539 904.583 150.897 859.571C169.226 747.449 258.845 652.973 377.612 611.149C383.151 609.198 389.446 611.555 391.67 616.412Z" fill="#F0F1F2"/>
<path d="M771.123 670.375C682.72 597.769 554.592 572.427 438.146 594.825C432.315 595.946 428.625 601 429.904 606.113C431.183 611.227 436.946 614.463 442.777 613.341C553.044 592.133 673.691 616.326 756.345 684.211C826.011 741.429 866.466 824.686 877.055 915.522C877.662 920.729 882.969 924.52 888.907 923.987C894.846 923.455 899.168 918.802 898.561 913.594C887.565 819.272 845.402 731.383 771.123 670.375Z" fill="#F0F1F2"/>
<path d="M896.299 958.734C902.237 958.199 907.546 961.987 908.156 967.194C918.421 1054.84 913.997 1149.5 898.5 1241.08C897.624 1246.26 892.126 1249.84 886.222 1249.07C880.317 1248.3 876.24 1243.48 877.116 1238.3C892.398 1147.99 896.701 1054.94 886.651 969.131C886.041 963.923 890.361 959.269 896.299 958.734Z" fill="#F0F1F2"/>
<path d="M519.463 651.249C353.831 651.249 219.254 767.124 219.254 910.387C219.254 925.691 220.803 940.685 223.755 955.265C224.798 960.42 230.409 963.856 236.287 962.941C242.164 962.026 246.083 957.106 245.039 951.951C242.306 938.452 240.872 924.567 240.872 910.387C240.872 777.885 365.435 670.206 519.463 670.206C589.069 670.206 652.664 692.205 701.477 728.556C706.027 731.944 712.848 731.457 716.712 727.467C720.577 723.477 720.021 717.495 715.47 714.107C662.869 674.935 594.349 651.249 519.463 651.249Z" fill="#F0F1F2"/>
<path d="M739.688 749.446C743.997 745.823 750.839 745.949 754.971 749.727C802.672 793.347 817.941 861.904 828.044 919.438C839.425 984.246 841.162 1047.47 841.162 1076.78C841.162 1082.02 836.323 1086.26 830.354 1086.26C824.384 1086.26 819.545 1082.02 819.545 1076.78C819.545 1047.94 817.824 985.79 806.679 922.323C797.299 868.91 783.778 803.458 739.368 762.848C735.236 759.069 735.379 753.069 739.688 749.446Z" fill="#F0F1F2"/>
<path d="M838.418 1131.07C838.893 1125.85 834.453 1121.28 828.503 1120.86C822.552 1120.45 817.343 1124.34 816.869 1129.56C811.561 1187.94 804.625 1246.26 790.55 1300.14C789.217 1305.24 792.854 1310.32 798.673 1311.49C804.491 1312.66 810.289 1309.47 811.622 1304.37C826.067 1249.08 833.096 1189.61 838.418 1131.07Z" fill="#F0F1F2"/>
<path d="M241.153 990.15C247.01 989.139 252.693 992.483 253.846 997.619C276.7 1099.39 260.912 1191.84 200.391 1272.82C197.119 1277.2 190.419 1278.42 185.426 1275.55C180.433 1272.68 179.038 1266.81 182.311 1262.43C239.254 1186.23 254.579 1099 232.636 1001.28C231.483 996.145 235.296 991.162 241.153 990.15Z" fill="#F0F1F2"/>
<path d="M519.463 712.919C411.945 712.919 306.47 785.901 295.705 877.625C290.991 917.781 297.612 957.335 304.236 996.905C310.02 1031.46 315.805 1066.02 314.049 1101.01C310.028 1181.08 283.236 1247.18 237.199 1301.62C233.644 1305.83 234.648 1311.76 239.443 1314.88C244.238 1318 251.008 1317.12 254.564 1312.91C303.391 1255.17 331.452 1185.36 335.645 1101.84C337.394 1067.01 331.591 1032.56 325.791 998.127C319.159 958.753 312.532 919.408 317.209 879.565C326.666 798.988 421.246 731.876 519.463 731.876C565.272 731.876 683.797 753.627 721.499 861.328C745.126 928.819 751.57 1020.16 745.847 1108.9C740.125 1197.62 722.325 1282.48 698.389 1336.9C696.241 1341.78 699.014 1347.27 704.584 1349.15C710.154 1351.04 716.41 1348.61 718.558 1343.72C743.6 1286.79 761.638 1199.78 767.43 1109.97C773.221 1020.16 766.856 926.296 742.165 855.765C700.314 736.214 569.122 712.919 519.463 712.919Z" fill="#F0F1F2"/>
<path d="M353.124 1272.84C358.124 1275.7 359.534 1281.57 356.273 1285.95C349.57 1294.96 343.674 1304.39 337.777 1313.82C331.881 1323.25 325.983 1332.68 319.279 1341.69C316.018 1346.08 309.321 1347.32 304.321 1344.46C299.321 1341.6 297.912 1335.72 301.173 1331.34C307.875 1322.33 313.772 1312.9 319.668 1303.47C325.565 1294.04 331.462 1284.61 338.166 1275.6C341.427 1271.21 348.124 1269.98 353.124 1272.84Z" fill="#F0F1F2"/>
<path d="M445.676 811.308C450.638 808.398 451.97 802.511 448.651 798.16C445.333 793.809 438.62 792.641 433.658 795.551C390.856 820.656 364.597 855.176 364.597 905.748C364.597 935.861 370.681 960.475 376.92 985.72C386.257 1023.5 392.59 1061.2 391.452 1100C390.07 1147.12 379.557 1190.18 359.347 1231.19C356.979 1236 359.502 1241.58 364.982 1243.65C370.462 1245.73 376.824 1243.52 379.192 1238.71C400.56 1195.34 411.614 1149.88 413.063 1100.49C414.245 1060.16 407.737 1020.98 398.052 981.712C391.798 956.356 386.215 933.718 386.215 905.748C386.215 862.418 407.952 833.434 445.676 811.308Z" fill="#F0F1F2"/>
<path d="M487.863 778.006C532.716 769.988 580.982 779.896 616.509 805.111C679.966 850.15 688.406 932.288 695.244 998.847L695.593 1002.24C704.43 1088.03 694.314 1171.37 673.936 1255.06C672.69 1260.18 666.947 1263.44 661.109 1262.35C655.271 1261.26 651.549 1256.22 652.795 1251.1C672.868 1168.66 682.651 1087.31 674.063 1003.94C673.779 1001.18 673.496 998.383 673.21 995.55L673.206 995.509C667.131 935.361 659.523 860.028 602.908 819.845C572.535 798.288 530.878 789.663 492.182 796.58C486.332 797.626 480.624 794.316 479.432 789.186C478.239 784.057 482.014 779.052 487.863 778.006Z" fill="#F0F1F2"/>
<path d="M658.66 1302.22C660.132 1297.15 656.637 1291.99 650.852 1290.7C645.067 1289.41 639.183 1292.47 637.71 1297.54C631.176 1320.05 621.107 1340.37 608.34 1359.07C605.275 1363.56 606.942 1369.38 612.064 1372.07C617.186 1374.76 623.824 1373.3 626.889 1368.81C640.648 1348.65 651.57 1326.64 658.66 1302.22Z" fill="#F0F1F2"/>
<path d="M605.804 1164.67C611.732 1165.29 615.969 1170 615.268 1175.2C605.059 1250.85 582.013 1318.31 545.033 1376.83C542.139 1381.41 535.561 1383.06 530.34 1380.53C525.118 1377.99 523.231 1372.22 526.125 1367.64C561.515 1311.64 583.861 1246.62 593.8 1172.97C594.501 1167.78 599.876 1164.06 605.804 1164.67Z" fill="#F0F1F2"/>
<path d="M603.576 900.777C596.083 865.666 561.717 838.808 519.998 838.808C463.504 838.808 423.868 888.742 437.835 935.201C461.469 1017.21 465.349 1096.24 449.35 1172.37L449.338 1172.42C435.454 1240.77 408.792 1302.25 372.424 1354.36C369.307 1358.82 370.908 1364.66 376 1367.39C381.091 1370.12 387.745 1368.72 390.862 1364.25C428.718 1310.02 456.286 1246.29 470.615 1175.78C487.227 1096.71 483.111 1014.91 458.78 930.507L458.75 930.407C448.274 895.655 477.477 857.764 519.998 857.764C550.684 857.764 576.593 877.559 582.314 904.2C598.047 984.224 606.242 1058.43 600.407 1122.33C599.93 1127.54 604.368 1132.11 610.318 1132.53C616.269 1132.95 621.479 1129.06 621.955 1123.84C628.003 1057.61 619.467 981.578 603.604 900.91C603.595 900.865 603.586 900.821 603.576 900.777Z" fill="#F0F1F2"/>
<path d="M487.745 1311.29C493.055 1313.68 495.147 1319.39 492.419 1324.05L463.778 1372.93C461.05 1377.58 454.534 1379.42 449.224 1377.02C443.915 1374.63 441.822 1368.92 444.551 1364.26L473.191 1315.39C475.92 1310.73 482.436 1308.9 487.745 1311.29Z" fill="#F0F1F2"/>
<path d="M528.037 909.916C526.672 904.82 520.854 901.66 515.043 902.857C509.231 904.054 505.627 909.156 506.992 914.252C543.443 1050.31 538.436 1169.79 494.038 1271.56C491.905 1276.45 494.696 1281.93 500.272 1283.8C505.847 1285.67 512.096 1283.23 514.229 1278.34C560.522 1172.22 565.227 1048.74 528.037 909.916Z" fill="#F0F1F2"/>
<path d="M960.947 364.892C942.809 429.612 940.449 497.663 957.011 563.822C958.291 568.935 964.055 572.17 969.886 571.048C975.716 569.926 979.406 564.871 978.126 559.758C962.265 496.399 964.581 431.074 982.093 368.893C1023.97 220.189 1150.87 96.1319 1317.09 48.5235C1381.37 30.112 1449.86 22.1651 1521.67 20.3975C1527.64 20.2506 1532.34 15.8896 1532.17 10.657C1532.01 5.42439 1527.03 1.30155 1521.07 1.44841C1448.27 3.24022 1378.02 11.283 1311.61 30.151C1137.59 79.5968 1004.57 209.258 960.947 364.892Z" fill="#F0F1F2"/>
<path d="M994.626 611.809C993.019 606.767 987.055 603.823 981.306 605.233C975.557 606.642 972.199 611.872 973.807 616.913C995.864 686.089 1071.52 783.262 1172.31 843.152C1172.35 843.175 1172.39 843.198 1172.43 843.221C1263.47 895.801 1377.75 928.587 1488.48 919C1488.59 918.991 1488.69 918.98 1488.8 918.968C1509.01 916.69 1529.19 912.907 1549.39 909.119C1591.92 901.141 1634.57 893.144 1677.94 899.145C1683.84 899.961 1689.38 896.43 1690.31 891.259C1691.24 886.089 1687.21 881.236 1681.31 880.42C1635.97 874.147 1591.8 882.241 1547.62 890.337C1527.19 894.081 1506.75 897.825 1486.2 900.149C1381.57 909.167 1272.25 878.161 1184.38 827.424C1087.45 769.812 1015.18 676.263 994.626 611.809Z" fill="#F0F1F2"/>
<path d="M1018.28 487.356C1009.53 368.383 1064.44 249.24 1170.22 169.016C1174.74 165.592 1181.57 166.026 1185.47 169.986C1189.38 173.945 1188.88 179.931 1184.37 183.355C1083.77 259.644 1031.51 373.019 1039.86 486.193C1039.86 486.233 1039.87 486.274 1039.87 486.314C1048.33 629.442 1159.61 763.169 1314.98 812.008C1320.6 813.774 1323.53 819.201 1321.51 824.129C1319.5 829.056 1313.31 831.619 1307.69 829.853C1144.01 778.402 1027.22 637.981 1018.28 487.356Z" fill="#F0F1F2"/>
<path d="M1217.33 139.997C1212.39 142.931 1211.09 148.823 1214.44 153.159C1217.78 157.494 1224.5 158.631 1229.45 155.697C1304.48 111.174 1386.26 92.6107 1483.36 85.075C1489.3 84.6136 1493.7 80.0124 1493.17 74.7981C1492.65 69.5838 1487.4 65.7309 1481.45 66.1923C1382.23 73.8926 1296.47 93.0408 1217.33 139.997Z" fill="#F0F1F2"/>
<path d="M1527.37 72.3895C1526.97 67.1661 1531.48 62.6524 1537.44 62.3077C1602.6 58.5375 1676.34 58.2802 1730.86 64.4372C1736.78 65.1058 1740.97 69.8567 1740.2 75.0485C1739.44 80.2404 1734.02 83.9072 1728.1 83.2385C1675.56 77.3043 1603.38 77.4905 1538.86 81.2231C1532.91 81.5678 1527.76 77.6128 1527.37 72.3895Z" fill="#F0F1F2"/>
<path d="M1367.39 826.162C1361.58 824.951 1355.76 828.098 1354.38 833.191C1353 838.283 1356.58 843.393 1362.39 844.604C1395.28 851.461 1429.05 854.97 1462.83 855.011C1497.66 855.052 1531.62 849.255 1565.61 843.456C1593.4 838.712 1621.21 833.966 1649.5 832.414C1686.67 830.375 1723.92 837.118 1759.39 848.858C1764.98 850.706 1771.21 848.234 1773.32 843.336C1775.43 838.439 1772.61 832.97 1767.03 831.122C1729.53 818.713 1689.16 811.245 1648.15 813.494C1620.06 815.036 1592.41 819.781 1564.78 824.523C1531.06 830.311 1497.35 836.095 1462.86 836.054C1430.76 836.016 1398.66 832.681 1367.39 826.162Z" fill="#F0F1F2"/>
<path d="M1126.22 578.187C1131.75 576.219 1138.05 578.557 1140.3 583.407C1185.68 681.533 1287.53 755.014 1407.33 769.704C1457.39 775.841 1506.92 768.895 1556.44 761.952C1584.32 758.042 1612.2 754.132 1640.17 752.56C1700.82 749.151 1767.47 755.008 1828.23 789.441C1833.24 792.282 1834.68 798.15 1831.44 802.546C1828.2 806.943 1821.51 808.203 1816.5 805.362C1761.14 773.99 1699.76 768.206 1641.55 771.478C1613.18 773.073 1584.97 776.96 1556.78 780.844C1506.21 787.813 1455.7 794.774 1404.34 788.478C1276.42 772.793 1168.37 694.534 1120.26 590.533C1118.02 585.682 1120.68 580.154 1126.22 578.187Z" fill="#F0F1F2"/>
<path d="M1186.44 245.259C1103.95 323.03 1075.49 435.473 1101.44 537.507C1102.74 542.616 1108.51 545.835 1114.34 544.696C1120.17 543.556 1123.84 538.491 1122.54 533.382C1097.97 436.763 1125.14 330.883 1202.27 258.169C1267.28 196.881 1362.08 161.118 1465.63 151.517C1471.57 150.966 1475.87 146.3 1475.24 141.094C1474.61 135.889 1469.29 132.115 1463.36 132.665C1355.83 142.635 1255.75 179.911 1186.44 245.259Z" fill="#F0F1F2"/>
<path d="M1514.84 134.492C1514.21 129.287 1518.51 124.619 1524.45 124.066C1624.36 114.76 1732.33 118.312 1836.81 131.584C1842.72 132.334 1846.82 137.142 1845.96 142.323C1845.11 147.503 1839.62 151.095 1833.72 150.344C1730.68 137.257 1624.55 133.806 1526.73 142.916C1520.79 143.469 1515.47 139.697 1514.84 134.492Z" fill="#F0F1F2"/>
<path d="M1165.5 466.005C1166.07 611.247 1298.68 728.856 1462.05 728.359C1479.51 728.306 1496.6 726.896 1513.22 724.257C1519.09 723.324 1522.99 718.392 1521.93 713.241C1520.86 708.09 1515.24 704.671 1509.36 705.604C1493.98 708.048 1478.15 709.354 1461.98 709.403C1310.88 709.862 1187.65 601.006 1187.12 465.939C1186.88 404.902 1211.74 349.059 1253.03 306.129C1256.88 302.127 1256.3 296.148 1251.73 292.773C1247.17 289.398 1240.35 289.907 1236.5 293.908C1192.01 340.17 1165.24 400.337 1165.5 466.005Z" fill="#F0F1F2"/>
<path d="M1276.72 272.549C1272.57 268.784 1272.69 262.783 1276.99 259.147C1326.56 217.167 1404.69 203.54 1470.26 194.481C1544.13 184.277 1616.22 182.534 1649.65 182.432C1655.62 182.414 1660.48 186.643 1660.5 191.878C1660.52 197.112 1655.7 201.37 1649.73 201.389C1616.84 201.489 1545.97 203.213 1473.63 213.206C1412.75 221.616 1338.16 233.7 1292 272.784C1287.71 276.42 1280.86 276.315 1276.72 272.549Z" fill="#F0F1F2"/>
<path d="M1711.56 184.651C1705.61 184.253 1700.42 188.161 1699.96 193.381C1699.51 198.6 1703.97 203.154 1709.92 203.552C1776.52 208.005 1843.05 213.885 1904.53 226.04C1910.35 227.191 1916.14 223.984 1917.45 218.878C1918.77 213.771 1915.11 208.698 1909.29 207.547C1846.18 195.072 1778.34 189.115 1711.56 184.651Z" fill="#F0F1F2"/>
<path d="M1552.94 708.88C1551.76 703.747 1555.56 698.752 1561.41 697.723C1677.39 677.33 1782.87 690.854 1875.43 743.644C1880.43 746.498 1881.85 752.369 1878.6 756.757C1875.34 761.145 1868.65 762.389 1863.64 759.535C1776.55 709.865 1677.02 696.729 1565.66 716.31C1559.81 717.339 1554.11 714.012 1552.94 708.88Z" fill="#F0F1F2"/>
<path d="M1235.83 465.791C1236.2 560.073 1319.79 652.311 1424.43 661.433C1470.24 665.427 1515.32 659.484 1560.42 653.539C1599.8 648.348 1639.2 643.154 1679.11 644.573C1770.43 647.821 1845.9 671.086 1908.15 711.267C1912.95 714.371 1919.72 713.469 1923.26 709.253C1926.8 705.038 1925.77 699.105 1920.96 696.001C1854.95 653.385 1775.23 629.02 1679.98 625.632C1640.26 624.22 1600.99 629.428 1561.74 634.633C1516.86 640.585 1472.02 646.533 1426.57 642.57C1334.64 634.556 1257.78 551.852 1257.44 465.725C1257.29 425.555 1281.68 321.546 1404.37 288.112C1481.25 267.16 1585.39 261.192 1686.6 265.903C1787.8 270.613 1884.64 285.928 1946.77 306.728C1952.35 308.595 1958.6 306.144 1960.73 301.254C1962.86 296.363 1960.06 290.885 1954.48 289.018C1889.47 267.256 1790.19 251.741 1687.75 246.973C1585.32 242.206 1478.3 248.113 1397.95 270.009C1261.76 307.123 1235.65 422.245 1235.83 465.791Z" fill="#F0F1F2"/>
<path d="M1874.92 609.713C1878.16 605.318 1884.85 604.062 1889.86 606.906C1900.16 612.753 1910.93 617.89 1921.71 623.028C1932.48 628.166 1943.26 633.305 1953.56 639.152C1958.57 641.997 1960 647.865 1956.76 652.26C1953.51 656.654 1946.82 657.91 1941.81 655.066C1931.51 649.22 1920.74 644.082 1909.96 638.944C1899.19 633.806 1888.42 628.667 1878.12 622.82C1873.1 619.975 1871.67 614.107 1874.92 609.713Z" fill="#F0F1F2"/>
<path d="M1348.28 530.153C1344.95 525.812 1338.23 524.665 1333.28 527.59C1328.33 530.516 1327.02 536.406 1330.36 540.747C1359.13 578.193 1398.59 601.1 1456.26 600.924C1490.6 600.82 1518.65 595.4 1547.41 589.841C1590.46 581.522 1633.43 575.838 1677.68 576.702C1731.42 577.75 1780.56 586.82 1827.4 604.4C1832.89 606.46 1839.25 604.228 1841.59 599.415C1843.94 594.603 1841.4 589.032 1835.91 586.972C1786.38 568.385 1734.5 558.849 1678.16 557.75C1632.18 556.853 1587.51 562.696 1542.77 571.324C1513.88 576.896 1488.08 581.871 1456.18 581.968C1406.77 582.118 1373.65 563.157 1348.28 530.153Z" fill="#F0F1F2"/>
<path d="M1310.16 493.275C1300.86 453.972 1311.99 411.613 1340.62 380.372C1391.76 324.57 1485.4 316.885 1561.28 310.658L1565.15 310.34C1662.95 302.293 1758.02 310.875 1853.53 328.455C1859.37 329.53 1863.11 334.555 1861.89 339.678C1860.66 344.801 1854.93 348.082 1849.09 347.007C1755.01 329.691 1662.21 321.394 1567.16 329.214C1564.02 329.473 1560.83 329.73 1557.6 329.991L1557.55 329.995C1488.98 335.53 1403.1 342.463 1357.47 392.248C1332.99 418.956 1323.3 455.516 1331.33 489.424C1332.54 494.55 1328.78 499.567 1322.94 500.63C1317.09 501.694 1311.37 498.401 1310.16 493.275Z" fill="#F0F1F2"/>
<path d="M1907.37 341.687C1901.58 340.413 1895.71 343.497 1894.25 348.574C1892.8 353.651 1896.32 358.8 1902.11 360.074C1927.8 365.726 1951 374.485 1972.37 385.615C1977.5 388.288 1984.14 386.806 1987.18 382.305C1990.23 377.804 1988.54 371.988 1983.41 369.316C1960.38 357.321 1935.24 347.82 1907.37 341.687Z" fill="#F0F1F2"/>
<path d="M1750.7 388.513C1751.38 383.313 1756.74 379.581 1762.67 380.178C1848.97 388.868 1925.98 408.843 1992.84 441.068C1998.07 443.589 1999.98 449.352 1997.11 453.939C1994.23 458.527 1987.66 460.202 1982.43 457.68C1918.44 426.84 1844.22 407.471 1760.2 399.011C1754.27 398.414 1750.01 393.714 1750.7 388.513Z" fill="#F0F1F2"/>
<path d="M1449.76 391.381C1409.75 398.074 1379.24 428.302 1379.38 464.885C1379.58 514.425 1436.66 549.009 1489.59 536.6C1583.03 515.591 1673.15 511.915 1760.01 525.681L1760.07 525.691C1838.06 537.629 1908.27 560.795 1967.81 592.506C1972.91 595.224 1979.56 593.799 1982.66 589.325C1985.76 584.851 1984.14 579.021 1979.03 576.304C1917.06 543.296 1844.29 519.342 1763.82 507.021C1673.61 492.729 1580.33 496.621 1484.17 518.25L1484.05 518.276C1444.46 527.583 1401.15 502.107 1401 464.82C1400.9 437.912 1423.38 415.123 1453.74 410.014C1544.94 395.941 1629.54 388.498 1702.42 393.393C1708.37 393.792 1713.57 389.885 1714.02 384.666C1714.48 379.446 1710.02 374.891 1704.07 374.491C1628.53 369.418 1541.85 377.167 1449.91 391.357C1449.86 391.364 1449.81 391.373 1449.76 391.381Z" fill="#F0F1F2"/>
<path d="M1918.3 491.53C1921.01 486.866 1927.52 485.012 1932.84 487.388L1988.67 512.333C1993.99 514.71 1996.1 520.417 1993.39 525.082C1990.68 529.746 1984.18 531.6 1978.86 529.224L1923.02 504.279C1917.7 501.902 1915.59 496.195 1918.3 491.53Z" fill="#F0F1F2"/>
<path d="M1460.45 457.59C1454.64 458.804 1451.06 463.917 1452.44 469.009C1453.83 474.101 1459.66 477.244 1465.46 476.029C1620.5 443.594 1756.76 447.57 1872.98 486.15C1878.56 488.003 1884.8 485.537 1886.91 480.641C1889.03 475.746 1886.21 470.275 1880.63 468.421C1759.45 428.195 1618.63 424.497 1460.45 457.59Z" fill="#F0F1F2"/>
</svg>
