<svg width="110" height="30" viewBox="0 0 110 30" fill="none" xmlns="http://www.w3.org/2000/svg">
<path d="M58.2543 7.47152C61.6185 7.47152 64.9213 10.1445 64.9213 14.9679V15.0294C64.9213 19.822 61.649 22.5255 58.2543 22.5255C55.8688 22.5255 54.3703 21.3274 53.3612 19.9757V25.0757C53.363 25.5071 53.1967 25.922 52.8979 26.2318C52.5992 26.5417 52.1916 26.7218 51.7623 26.7337L51.7097 26.7345C50.8228 26.7345 50.0889 25.9973 50.0889 25.1063V9.1921C50.0582 8.30116 50.7923 7.56368 51.6792 7.53303H51.7097C52.1391 7.53117 52.5522 7.69815 52.8606 7.99826C53.1691 8.29837 53.3484 8.70779 53.3603 9.139L53.3612 9.1921V10.1752C54.4315 8.66979 55.9301 7.47152 58.2543 7.47152ZM101.804 7.44087C104.091 7.44087 105.579 8.60138 106.646 10.0731L106.697 10.1443V9.16123L106.698 9.10835C106.709 8.68646 106.881 8.28502 107.178 7.9865C107.475 7.68799 107.875 7.51506 108.295 7.50325L108.348 7.50238H108.379C109.279 7.5326 110.002 8.24224 110.001 9.139L110 9.1921V19.2691C110 21.6961 109.357 23.5088 108.165 24.7068C106.88 26.0279 104.862 26.6424 102.262 26.6424C100.336 26.6424 98.4397 26.2122 96.6965 25.352C96.146 25.1676 95.7791 24.6147 95.7791 24.0311C95.8096 23.2627 96.4212 22.6791 97.1857 22.6791C97.3999 22.6791 97.5831 22.71 97.7668 22.8022C99.1124 23.5701 100.641 23.9387 102.171 23.9387C104.954 23.9387 106.544 22.587 106.697 19.9757C105.688 21.2966 104.189 22.4948 101.804 22.4948C98.4429 22.4948 95.2022 19.8451 95.1378 15.1416L95.1367 14.9985V14.9372C95.1367 10.1137 98.4397 7.44087 101.804 7.44087ZM88.7449 7.53303C91.9869 7.53303 93.8521 9.7144 93.8521 13.0632V20.8358C93.8829 21.7267 93.1795 22.4333 92.2924 22.4642H92.2314C91.3445 22.4948 90.6106 21.7576 90.5799 20.8666V14.0769C90.5799 11.8343 89.479 10.5438 87.4911 10.5438C85.5951 10.5438 84.2493 11.8956 84.2493 14.1384V20.8666C84.2502 21.0847 84.208 21.3008 84.1254 21.5025C84.0427 21.7041 83.9211 21.8874 83.7676 22.0416C83.6141 22.1958 83.4317 22.318 83.2309 22.401C83.0302 22.4841 82.8151 22.5264 82.598 22.5255C82.3809 22.5264 82.1657 22.4841 81.965 22.4011C81.7642 22.318 81.5818 22.1959 81.4282 22.0417C81.2747 21.8874 81.1531 21.7042 81.0704 21.5025C80.9877 21.3009 80.9456 21.0847 80.9465 20.8666L80.977 9.22274C80.9465 8.33181 81.6804 7.59454 82.5673 7.56368H82.598C83.0274 7.56182 83.4406 7.72883 83.749 8.02898C84.0575 8.32914 84.2368 8.73862 84.2486 9.16987L84.2493 9.22274V9.89871C85.2281 8.36246 86.9406 7.47152 88.7449 7.53303ZM43.2384 7.50238C44.8287 7.53303 46.3579 7.93253 47.7645 8.66979C48.2539 8.91562 48.5596 9.37641 48.5596 9.92936C48.5596 10.6666 47.948 11.2811 47.2141 11.2811H47.1836C46.9694 11.2811 46.7554 11.2198 46.5412 11.1276C45.5014 10.5438 44.37 10.2061 43.1772 10.1445C41.8928 10.1445 41.1587 10.7588 41.1587 11.5578V11.6191C41.1587 12.6943 42.7185 13.1245 44.4005 13.6774L44.5384 13.7202L44.677 13.7638C44.839 13.8151 45.0011 13.8691 45.1634 13.9256L45.3024 13.9748C47.1292 14.6325 48.8656 15.6704 48.8656 17.8865V17.948C48.8656 20.9894 46.5107 22.4948 43.5441 22.4948C41.5869 22.4642 39.6602 21.8804 38.0394 20.7745C37.6419 20.5284 37.397 20.0985 37.4277 19.6377C37.4277 18.9004 38.0087 18.286 38.7426 18.286H38.7733C39.018 18.286 39.2627 18.3473 39.4767 18.4703C40.7 19.3304 42.1373 19.7912 43.6054 19.8527C45.0121 19.8527 45.8378 19.2382 45.8378 18.2858V18.2245C45.8378 17.0877 44.3088 16.7191 42.6267 16.1968C42.4506 16.1458 42.2733 16.0926 42.095 16.0371L41.9614 15.995C40.0454 15.3825 38.1311 14.4341 38.1311 11.9571V11.8955C38.1311 9.16123 40.3943 7.50238 43.2384 7.50238ZM77.6435 7.56368C78.0729 7.56182 78.486 7.72883 78.7945 8.02898C79.103 8.32914 79.2823 8.73862 79.2941 9.16987L79.295 9.22274V20.8666C79.295 21.7882 78.5611 22.4948 77.6435 22.4948C76.7261 22.4948 76.0227 21.7576 76.0227 20.8666V9.22274C75.9922 8.33181 76.7261 7.59454 77.613 7.56368H77.6435ZM74.7076 8.91584V9.16145C74.7076 9.96023 74.1572 10.6362 73.3928 10.759C71.0377 11.1585 69.4474 13.2168 69.4474 16.0742V20.836C69.4474 21.7576 68.7135 22.4644 67.7961 22.4644C66.9266 22.4644 66.2041 21.7852 66.1762 20.9191L66.1751 20.8666V20.836L66.2058 9.1921C66.1751 8.30138 66.9092 7.56389 67.7961 7.53325H67.8266C68.256 7.53139 68.6691 7.69837 68.9776 7.99847C69.286 8.29858 69.4654 8.70801 69.4773 9.13922L69.4781 9.19231V9.99087C69.6309 8.76217 71.6493 7.53325 73.0869 7.53325C73.9125 7.47174 74.6466 8.0862 74.7076 8.91584ZM57.5203 10.3597C55.2879 10.3597 53.3305 12.2338 53.3305 14.9681V15.0296C53.3305 17.7945 55.2877 19.6379 57.5203 19.6379C59.753 19.6379 61.6185 17.8867 61.6185 15.0296V14.9681C61.6185 12.1722 59.7528 10.3597 57.5203 10.3597ZM102.568 10.3291C100.359 10.3291 98.5087 12.1045 98.4709 14.8513L98.4702 14.9374V14.9987C98.4702 17.8561 100.305 19.6379 102.568 19.6379C104.808 19.6379 106.749 17.8019 106.758 15.0831L106.758 14.9989V14.9374C106.758 12.2029 104.801 10.3291 102.568 10.3291ZM79.3257 3.5085V3.56979C79.3266 3.78792 79.2845 4.00407 79.2018 4.20577C79.1192 4.40747 78.9976 4.59073 78.844 4.74497C78.6905 4.89921 78.5081 5.02138 78.3073 5.10443C78.1065 5.18748 77.8913 5.22977 77.6742 5.22886C77.4571 5.22977 77.2419 5.18748 77.0411 5.10443C76.8403 5.02138 76.6579 4.89921 76.5044 4.74497C76.3508 4.59073 76.2292 4.40747 76.1466 4.20577C76.0639 4.00407 76.0218 3.78792 76.0227 3.56979C76.0209 3.13842 76.1871 2.72344 76.4858 2.41357C76.7845 2.1037 77.1921 1.92354 77.6213 1.91159L77.6742 1.91073C78.5611 1.88008 79.295 2.61735 79.3257 3.5085ZM4.52097 4.18425C10.3927 -1.52999 19.7818 -1.37654 25.47 4.55289C26.1123 3.69282 26.6628 2.74037 27.0602 1.75728C28.9257 7.47152 30.0573 12.2644 29.6291 15.9818C29.4151 19.1154 28.1918 22.1262 26.1734 24.5225C20.9131 30.7899 11.555 31.5887 5.31632 26.3044L5.19623 26.1973L5.17539 26.1829C5.1036 26.1318 5.03761 26.073 4.97859 26.0074L4.96205 25.9882L4.76568 25.813C4.5822 25.655 4.39873 25.4968 4.23437 25.3196L4.15402 25.2291C-1.5344 19.3306 -1.35071 9.89871 4.52097 4.18425ZM6.72312 24.1845C6.17248 23.7544 5.37734 23.8159 4.94916 24.3689C4.57597 24.851 4.57447 25.5199 4.94507 25.9686L4.96205 25.9882L5.19623 26.1973L5.21921 26.2131C5.74902 26.5636 6.46058 26.4952 6.87287 26.0081L6.90638 25.9664C7.33457 25.4135 7.24304 24.6147 6.72312 24.1845ZM26.907 3.29353C25.378 6.51951 21.5858 8.97713 18.3133 9.74526C17.0528 10.0461 15.8583 10.1219 14.6925 10.1812L14.3436 10.1989C12.7772 10.2777 11.2563 10.3647 9.68925 10.9742C3.2057 13.4627 3.32816 21.2048 6.87566 22.9558L7.08964 23.0789C7.08964 23.0789 9.43724 22.6099 11.8605 21.9771L12.0775 21.9199L12.1862 21.8909L12.4032 21.8327C13.4155 21.5586 14.4111 21.2601 15.2247 20.959C19.4451 19.3921 24.0935 15.521 25.6227 11.0357C24.8276 15.7053 20.8212 20.2215 16.815 22.2801C14.6743 23.386 13.0228 23.6318 9.50578 24.8607C9.24716 24.9534 8.9921 25.0559 8.74115 25.1679L8.80173 25.1597L8.92226 25.1437L9.04214 25.1286C9.81816 25.0319 10.5149 24.9835 10.5149 24.9835C15.4999 24.7377 23.329 26.3968 26.9683 21.512C30.6993 16.535 28.6198 8.48569 26.907 3.29353Z" fill="#6DB33F"/>
<path d="M6.72289 24.1846C7.24281 24.6147 7.33455 25.4135 6.90636 25.9664C6.47818 26.5194 5.68304 26.5809 5.13261 26.1507C4.58219 25.7206 4.52095 24.922 4.94914 24.3689C5.37732 23.8159 6.17246 23.7544 6.72289 24.1846ZM26.9075 3.29333C28.6198 8.48549 30.6995 16.5348 26.9685 21.5118C23.329 26.3966 15.5001 24.7375 10.5151 24.9833C10.5151 24.9833 9.62822 25.0448 8.74135 25.1677C8.74135 25.1677 9.07779 25.0142 9.50597 24.8605C13.023 23.6316 14.6745 23.3858 16.815 22.2799C20.8214 20.2213 24.8278 15.7051 25.6229 11.0353C24.0937 15.5208 19.4453 19.3921 15.2249 20.9588C14.4695 21.2383 13.5569 21.5156 12.6201 21.7733L12.4036 21.8325C9.80095 22.5371 7.08984 23.0787 7.08984 23.0787L6.87586 22.9556C3.32836 21.2046 3.2059 13.4625 9.68945 10.974C12.5336 9.86787 15.2249 10.4823 18.3137 9.74506C21.586 8.97693 25.3782 6.51931 26.9075 3.29333Z" fill="white"/>
</svg>
