<svg width="24" height="24" viewBox="0 0 24 24" fill="none" xmlns="http://www.w3.org/2000/svg">
<path d="M23.2502 23.25C22.7901 21.9354 21.9328 20.7962 20.797 19.9901C19.6612 19.1839 18.303 18.7506 16.9102 18.75C15.5174 18.7506 14.1592 19.1839 13.0234 19.9901C11.8876 20.7962 11.0303 21.9354 10.5702 23.25M13.3502 11C13.9895 11.6616 14.7555 12.1876 15.6025 12.5467C16.4495 12.9058 17.3602 13.0905 18.2802 13.09C19.2127 13.1023 20.138 12.9254 21.0002 12.57" stroke="#99171C" stroke-width="1.5" stroke-linecap="round" stroke-linejoin="round"/>
<path d="M16.7802 18.75V23.25M12.7902 13.12C12.7902 14.2127 13.2243 15.2606 13.9969 16.0333C14.7696 16.8059 15.8175 17.24 16.9102 17.24C18.0029 17.24 19.0508 16.8059 19.8235 16.0333C20.5961 15.2606 21.0302 14.2127 21.0302 13.12C21.0302 12.0273 20.5961 10.9794 19.8235 10.2067C19.0508 9.43407 18.0029 9 16.9102 9C15.8175 9 14.7696 9.43407 13.9969 10.2067C13.2243 10.9794 12.7902 12.0273 12.7902 13.12Z" stroke="#99171C" stroke-width="1.5" stroke-linecap="round" stroke-linejoin="round"/>
<path d="M5.7402 21.35C4.22602 20.336 2.98083 18.9693 2.11174 17.3676C1.24266 15.7658 0.7757 13.9769 0.751031 12.1547C0.726362 10.3325 1.14472 8.53162 1.97012 6.90691C2.79553 5.28221 4.00326 3.88233 5.48944 2.82771C6.97562 1.77309 8.69575 1.09528 10.5019 0.852606C12.308 0.609929 14.146 0.809643 15.8579 1.43457C17.5697 2.05949 19.1041 3.09092 20.3291 4.44013C21.5541 5.78933 22.433 7.41593 22.8902 9.18" stroke="#99171C" stroke-width="1.5" stroke-linecap="round" stroke-linejoin="round"/>
<path d="M8.0002 19.4C6.7945 15.5749 6.48653 11.5234 7.1002 7.56C7.35764 5.26807 8.1045 3.05821 9.2902 1.08M0.770203 11.25H9.7502M2.4802 6H21.5202M1.6902 16.5H9.7502M14.7102 1.08C15.6501 2.58656 16.3012 4.25501 16.6302 6" stroke="#99171C" stroke-width="1.5" stroke-linecap="round" stroke-linejoin="round"/>
</svg>
