<svg width="24" height="24" viewBox="0 0 24 24" fill="none" xmlns="http://www.w3.org/2000/svg">
<g clip-path="url(#clip0_28_14)">
<path d="M15.3721 10.1096C15.6929 10.3162 15.9644 10.5579 16.0587 10.9391C16.1366 11.3704 16.1417 11.7947 16.1397 12.2314C16.1395 12.289 16.1395 12.289 16.1394 12.3477C16.1357 13.3266 16.0293 14.2733 15.6563 15.1875C15.7004 15.1871 15.7446 15.1867 15.7901 15.1862C16.208 15.1824 16.6259 15.1796 17.0438 15.1778C17.2586 15.1768 17.4734 15.1755 17.6882 15.1734C17.8958 15.1713 18.1033 15.1702 18.3109 15.1697C18.3898 15.1694 18.4687 15.1687 18.5476 15.1677C19.1236 15.1605 19.591 15.2007 20.0272 15.613C20.3043 15.9167 20.4622 16.2609 20.4492 16.6796C20.4079 17.0382 20.2689 17.333 20.0625 17.625C20.0817 17.6511 20.1009 17.6772 20.1207 17.7041C20.3582 18.0404 20.4738 18.3286 20.4375 18.75C20.3403 19.1951 20.126 19.4926 19.8281 19.8281C19.8417 19.8549 19.8552 19.8817 19.8691 19.9092C20.0548 20.3147 20.0922 20.7251 19.9482 21.1523C19.7869 21.5044 19.4872 21.7982 19.125 21.9375C19.1405 21.9878 19.1559 22.038 19.1719 22.0898C19.2792 22.5302 19.2562 22.9463 19.0313 23.3437C18.8214 23.6711 18.5195 23.9027 18.1406 24C17.7397 24.0534 17.3314 24.0385 16.9279 24.0357C16.8093 24.0358 16.6907 24.0359 16.5721 24.0362C16.3243 24.0364 16.0764 24.0356 15.8285 24.0341C15.5436 24.0323 15.2586 24.0324 14.9737 24.0335C14.6976 24.0345 14.4215 24.0341 14.1453 24.0332C14.0287 24.0329 13.9122 24.033 13.7956 24.0334C12.9516 24.0353 12.3636 23.9806 11.6865 23.4375C11.2569 23.0982 10.8856 22.8321 10.3213 22.8457C10.2829 22.8448 10.2445 22.8439 10.2049 22.843C10.0009 22.8446 9.91807 22.8515 9.75825 22.9882C9.72459 23.0282 9.69093 23.0682 9.65626 23.1094C9.50966 23.2024 9.39685 23.2143 9.22486 23.2123C9.17894 23.212 9.13301 23.2117 9.0857 23.2114C9.03808 23.2106 8.99047 23.2098 8.94141 23.209C8.89307 23.2086 8.84473 23.2081 8.79493 23.2077C8.67578 23.2066 8.55665 23.2051 8.43751 23.2031C8.42878 23.2465 8.42878 23.2465 8.41988 23.2907C8.41192 23.3286 8.40396 23.3665 8.39576 23.4056C8.38801 23.4432 8.38026 23.4808 8.37227 23.5196C8.31763 23.7216 8.20994 23.8255 8.0368 23.9347C7.82845 24.0188 7.65334 24.0201 7.43089 24.0189C7.3651 24.0194 7.3651 24.0194 7.29798 24.0199C7.15346 24.0208 7.00897 24.0206 6.86445 24.0203C6.76369 24.0205 6.66294 24.0208 6.56218 24.0211C6.35118 24.0215 6.14018 24.0214 5.92918 24.0209C5.65912 24.0204 5.38908 24.0213 5.11902 24.0227C4.911 24.0235 4.70298 24.0235 4.49495 24.0233C4.3954 24.0233 4.29584 24.0235 4.19629 24.0241C4.05694 24.0248 3.91765 24.0243 3.77831 24.0235C3.73741 24.024 3.69652 24.0244 3.65438 24.0249C3.38223 24.0216 3.22332 23.9705 3.00001 23.8125C2.79784 23.5571 2.75991 23.374 2.75905 23.055C2.75878 22.9957 2.75851 22.9365 2.75824 22.8754C2.75818 22.8098 2.75813 22.7442 2.75808 22.6787C2.75786 22.6095 2.75763 22.5404 2.75737 22.4712C2.75676 22.2834 2.75646 22.0956 2.75625 21.9078C2.75611 21.7904 2.75592 21.673 2.75571 21.5556C2.75507 21.188 2.75461 20.8205 2.75443 20.4529C2.75422 20.029 2.7534 19.6051 2.75204 19.1813C2.75103 18.8534 2.75056 18.5254 2.75049 18.1975C2.75044 18.0018 2.75017 17.8061 2.74933 17.6104C2.74856 17.4262 2.74846 17.242 2.74887 17.0577C2.7489 16.9903 2.7487 16.9229 2.74824 16.8555C2.7432 16.0783 2.7432 16.0783 2.96768 15.8199C3.24277 15.5697 3.53496 15.5486 3.88705 15.5496C3.92817 15.5494 3.96929 15.5491 4.01165 15.5489C4.14704 15.5482 4.28241 15.5483 4.41779 15.5484C4.51224 15.5482 4.60669 15.548 4.70114 15.5478C4.8989 15.5474 5.09666 15.5475 5.29442 15.5477C5.54745 15.548 5.80047 15.5472 6.0535 15.5461C6.2485 15.5454 6.44349 15.5454 6.63849 15.5455C6.73176 15.5455 6.82504 15.5452 6.91831 15.5448C7.04889 15.5442 7.17944 15.5445 7.31002 15.545C7.34829 15.5447 7.38655 15.5443 7.42598 15.544C7.67247 15.5462 7.84387 15.5869 8.06251 15.7031C8.10062 15.7441 8.13872 15.7851 8.17799 15.8273C8.33159 15.9697 8.45282 15.9708 8.65229 15.967C8.68659 15.9671 8.7209 15.9672 8.75624 15.9673C8.82894 15.9673 8.90163 15.9666 8.97431 15.9655C9.08288 15.9639 9.19127 15.9645 9.29984 15.9654C10.2435 15.9645 10.9869 15.713 11.6719 15.0469C11.7002 15.0215 11.7284 14.9961 11.7576 14.97C12.7209 14.0787 13.2351 12.6246 13.3565 11.3467C13.401 10.8997 13.5381 10.5475 13.8752 10.2409C14.3047 9.92402 14.8943 9.86021 15.3721 10.1096ZM14.2969 11.0625C14.2638 11.1549 14.2638 11.1549 14.2458 11.2566C14.2346 11.3127 14.2346 11.3127 14.2231 11.3699C14.1987 11.5098 14.1782 11.6498 14.1592 11.7904C13.9314 13.4488 13.1159 15.1048 11.7678 16.1373C11.2296 16.4918 10.6667 16.6905 10.0313 16.7812C10.0313 18.4983 10.0313 20.2153 10.0313 21.9844C10.3097 21.9998 10.5881 22.0153 10.875 22.0312C11.4341 22.152 11.8484 22.4696 12.2908 22.8175C12.3364 22.8528 12.3364 22.8528 12.3829 22.8887C12.4096 22.9098 12.4363 22.9308 12.4638 22.9525C12.7737 23.1508 13.027 23.1769 13.3881 23.1752C13.4371 23.1755 13.4861 23.1758 13.5365 23.1762C13.6978 23.177 13.859 23.1768 14.0202 23.1766C14.1326 23.1768 14.2449 23.177 14.3573 23.1773C14.5925 23.1777 14.8277 23.1776 15.0629 23.1772C15.3642 23.1766 15.6655 23.1776 15.9668 23.1789C16.1987 23.1798 16.4306 23.1798 16.6626 23.1795C16.7737 23.1795 16.8848 23.1798 16.9959 23.1804C17.1512 23.1811 17.3064 23.1806 17.4617 23.1798C17.5075 23.1802 17.5533 23.1807 17.6005 23.1811C17.8736 23.1782 18.0253 23.1485 18.2344 22.9687C18.3358 22.8403 18.3714 22.7584 18.3955 22.5967C18.3635 22.3723 18.2613 22.2326 18.0879 22.0898C17.8933 22.0052 17.693 21.9719 17.4844 21.9375C17.4277 21.7675 17.4006 21.5981 17.4375 21.4219C17.5007 21.3177 17.5007 21.3177 17.625 21.2344C17.8373 21.2021 18.0517 21.2106 18.2659 21.2115C18.5603 21.2071 18.7861 21.1714 19.0313 21C19.1492 20.8636 19.1696 20.7836 19.1924 20.6045C19.1676 20.4027 19.1169 20.3097 18.9844 20.1562C18.8285 20.057 18.6821 20.0088 18.5039 19.9687C18.3281 19.9219 18.3281 19.9219 18.2344 19.7812C18.2236 19.6904 18.2236 19.6904 18.2256 19.5937C18.226 19.5459 18.226 19.5459 18.2265 19.4971C18.2344 19.4062 18.2344 19.4062 18.2813 19.2656C18.4422 19.1998 18.6195 19.2106 18.791 19.2041C19.1228 19.182 19.2616 19.134 19.4912 18.8965C19.5651 18.7643 19.5877 18.6674 19.5938 18.5156C19.5145 18.2954 19.4188 18.1677 19.2188 18.0469C19.0854 18.0089 18.9526 17.9767 18.8168 17.9487C18.7031 17.9062 18.7031 17.9062 18.6401 17.8185C18.5927 17.6645 18.6196 17.5455 18.6563 17.3906C18.7652 17.2443 18.8744 17.2236 19.0488 17.1885C19.2205 17.1449 19.3401 17.1118 19.459 16.9775C19.5513 16.8205 19.5938 16.7287 19.5938 16.5469C19.5193 16.351 19.4258 16.2132 19.2656 16.0781C19.099 16.0226 18.9477 16.0241 18.7743 16.0239C18.7387 16.0236 18.7031 16.0234 18.6664 16.0231C18.5891 16.0226 18.5117 16.0222 18.4344 16.0219C18.3118 16.0214 18.1892 16.0204 18.0666 16.0194C17.7181 16.0165 17.3696 16.014 17.0211 16.0124C16.8078 16.0115 16.5946 16.0098 16.3814 16.0077C16.3003 16.007 16.2192 16.0066 16.1381 16.0065C16.0243 16.0063 15.9106 16.0052 15.7968 16.0039C15.7636 16.004 15.7304 16.0042 15.6961 16.0043C15.4172 15.9997 15.2036 15.9328 14.9854 15.7559C14.8102 15.5353 14.7879 15.3224 14.8125 15.0469C14.8468 14.9017 14.8949 14.7627 14.9443 14.6221C15.193 13.8765 15.29 13.1456 15.2899 12.3617C15.29 12.258 15.2909 12.1544 15.2918 12.0507C15.3176 11.4916 15.3176 11.4916 15.1308 10.9857C15.009 10.8684 14.9073 10.8283 14.7422 10.7988C14.5426 10.8345 14.4151 10.8988 14.2969 11.0625ZM3.60938 16.4062C3.60938 18.6337 3.60938 20.8612 3.60938 23.1562C4.92422 23.1562 6.23907 23.1562 7.59376 23.1562C7.59376 20.9287 7.59376 18.7012 7.59376 16.4062C6.27891 16.4062 4.96407 16.4062 3.60938 16.4062ZM8.43751 16.8281C8.43751 18.6534 8.43751 20.4787 8.43751 22.3594C8.68501 22.3594 8.93251 22.3594 9.18751 22.3594C9.18751 20.5341 9.18751 18.7087 9.18751 16.8281C8.94001 16.8281 8.69251 16.8281 8.43751 16.8281Z" fill="#99171C"/>
<path d="M12.2812 3.19444e-07C12.7275 0.194755 12.9279 0.809863 13.135 1.22651C13.1869 1.33094 13.2393 1.43516 13.2917 1.53937C13.3248 1.6057 13.358 1.67205 13.391 1.7384C13.4067 1.76955 13.4224 1.8007 13.4385 1.8328C13.5469 2.05172 13.5469 2.05172 13.5469 2.15625C13.5797 2.15838 13.6126 2.1605 13.6464 2.16269C14.0279 2.19055 14.4008 2.24492 14.7773 2.31152C14.8342 2.32092 14.8912 2.33032 14.9498 2.34C15.671 2.46687 15.671 2.46687 15.9111 2.76855C16.0276 2.98757 16.0601 3.17654 16.0312 3.42188C15.9169 3.76477 15.6749 3.97887 15.4204 4.22369C15.2806 4.35837 15.1537 4.50134 15.028 4.64923C14.9213 4.7706 14.8061 4.88261 14.6898 4.99475C14.589 5.10014 14.5781 5.14626 14.5788 5.29486C14.6016 5.66943 14.6414 6.03623 14.6982 6.40723C14.8387 7.34564 14.8387 7.34564 14.6865 7.66699C14.4967 7.86709 14.3348 8.02013 14.0542 8.03979C13.6891 8.03586 13.3837 7.84254 13.0693 7.67578C13.0065 7.64341 12.9437 7.61112 12.8808 7.57892C12.443 7.35344 12.443 7.35344 12.2867 7.25932C12.1127 7.14711 12.1127 7.14711 11.9121 7.14642C11.7209 7.24084 11.5314 7.33719 11.3437 7.43848C11.2642 7.48055 11.1847 7.5226 11.1051 7.56464C10.9652 7.639 10.8259 7.71447 10.6873 7.79132C10.3804 7.95827 10.1051 8.09817 9.74999 8.01562C9.51623 7.89875 9.3517 7.73468 9.23436 7.5C9.2057 7.06697 9.25949 6.64923 9.32811 6.22266C9.46172 5.62319 9.46172 5.62319 9.36162 5.04456C9.33413 5.01761 9.30663 4.99066 9.27831 4.96289C9.24827 4.93232 9.21824 4.90174 9.1873 4.87024C9.15643 4.84087 9.12555 4.81151 9.09374 4.78125C9.03899 4.72662 8.9843 4.67194 8.92967 4.61719C8.88898 4.57713 8.88898 4.57713 8.84746 4.53625C8.73407 4.42109 8.62877 4.29979 8.52355 4.17719C8.46237 4.10677 8.39998 4.03741 8.33678 3.96881C8.3033 3.93238 8.26983 3.89594 8.23534 3.8584C8.20458 3.82535 8.17382 3.79229 8.14214 3.75824C7.99404 3.56861 7.9468 3.38738 7.95409 3.1463C7.9896 2.90528 8.08459 2.7277 8.27633 2.57831C8.46372 2.46908 8.62318 2.43114 8.83446 2.39429C8.87189 2.38727 8.90932 2.38025 8.94789 2.37302C9.02662 2.35839 9.10541 2.34407 9.18426 2.33004C9.30443 2.30864 9.42439 2.28627 9.54436 2.26373C9.62119 2.24958 9.69803 2.23548 9.77489 2.22144C9.81049 2.21485 9.84609 2.20826 9.88278 2.20147C10.0755 2.16746 10.2565 2.14933 10.4531 2.15625C10.465 2.11743 10.4769 2.07861 10.4891 2.03862C10.5542 1.85412 10.6342 1.68249 10.7204 1.50714C10.7373 1.47272 10.7542 1.4383 10.7716 1.40283C10.8073 1.33041 10.8431 1.25805 10.8789 1.18573C10.9334 1.07566 10.9868 0.965166 11.0403 0.854645C11.0752 0.78403 11.1102 0.713442 11.1452 0.642884C11.1688 0.593729 11.1688 0.593729 11.1928 0.543582C11.4345 0.0645321 11.7603 -0.047106 12.2812 3.19444e-07ZM11.9531 0.984375C11.9274 1.0376 11.9016 1.09082 11.8751 1.14566C11.7792 1.34333 11.6825 1.54057 11.5855 1.73768C11.5436 1.823 11.502 1.90843 11.4607 1.99398C11.4011 2.11705 11.3408 2.23968 11.2802 2.36224C11.2619 2.40048 11.2437 2.43872 11.2248 2.47811C11.1226 2.68275 11.0506 2.82013 10.8281 2.90625C10.6893 2.94168 10.55 2.96585 10.4086 2.98846C10.3686 2.99533 10.3286 3.00219 10.2873 3.00926C10.16 3.03105 10.0327 3.0522 9.90526 3.07324C9.77735 3.09449 9.64948 3.11588 9.52168 3.13773C9.44229 3.1513 9.36284 3.16451 9.28332 3.17733C9.07367 3.20772 9.07367 3.20772 8.90624 3.32813C9.01649 3.44638 9.12688 3.56451 9.23729 3.68262C9.26808 3.71564 9.29886 3.74866 9.33058 3.78268C9.47939 3.94175 9.62921 4.09921 9.78368 4.25281C9.9078 4.3763 10.0302 4.49992 10.1455 4.63184C10.1773 4.66694 10.2092 4.70205 10.242 4.73822C10.4575 5.15636 10.2589 5.79212 10.1953 6.24023C10.184 6.32165 10.1727 6.40307 10.1614 6.4845C10.134 6.68242 10.1062 6.88029 10.0781 7.07812C10.2502 7.02331 10.4124 6.96371 10.5738 6.88257C10.6319 6.85342 10.6319 6.85342 10.6913 6.82368C10.7316 6.80323 10.7719 6.78278 10.8135 6.76172C10.8552 6.74085 10.8969 6.71998 10.9399 6.69848C11.1983 6.56838 11.4504 6.4327 11.696 6.27942C11.8904 6.20425 12.0871 6.19999 12.2836 6.2673C12.3846 6.31434 12.482 6.36539 12.5797 6.41895C12.6154 6.43767 12.651 6.4564 12.6878 6.4757C12.8007 6.53517 12.913 6.59566 13.0254 6.65625C13.1388 6.71664 13.2524 6.77681 13.366 6.8368C13.4365 6.87409 13.5068 6.91164 13.577 6.94948C13.7402 7.04489 13.7402 7.04489 13.9219 7.07812C13.8719 6.59124 13.8136 6.10744 13.7327 5.62459C13.6295 4.98015 13.6295 4.98015 13.7633 4.73749C13.7982 4.69876 13.8331 4.66002 13.8691 4.62012C13.9076 4.57685 13.946 4.53359 13.9856 4.48901C14.1436 4.32351 14.3039 4.16087 14.4675 4.00085C14.6938 3.77531 14.8946 3.53068 15.0937 3.28125C14.6088 3.16315 14.1218 3.07475 13.6293 2.99506C13.5735 2.98557 13.5178 2.97608 13.4604 2.96631C13.4106 2.95812 13.3607 2.94993 13.3093 2.9415C13.1238 2.89391 12.9931 2.84892 12.8831 2.68414C12.8249 2.57839 12.7718 2.47117 12.7198 2.36224C12.6906 2.30324 12.6906 2.30324 12.6609 2.24304C12.5991 2.11772 12.5383 1.99199 12.4775 1.86621C12.4357 1.78101 12.3939 1.69583 12.352 1.61069C12.2496 1.40225 12.148 1.19343 12.0469 0.984375C12.0159 0.984375 11.985 0.984375 11.9531 0.984375Z" fill="#99171C"/>
<path d="M20.3555 4.83399C20.6423 5.02957 20.7658 5.28173 20.8932 5.59314C21.1985 6.43327 21.1985 6.43327 21.7917 7.03674C21.986 7.08649 22.1769 7.08741 22.3764 7.07886C22.5992 7.07754 22.8128 7.12782 23.0303 7.17188C23.0708 7.17864 23.1114 7.18541 23.1532 7.19238C23.4658 7.24728 23.7002 7.33794 23.9268 7.57031C24.0586 7.86558 24.0496 8.16619 23.9355 8.4668C23.8043 8.65871 23.6284 8.81633 23.462 8.9773C23.3313 9.10597 23.2125 9.24136 23.0934 9.38068C22.9883 9.49963 22.8758 9.60993 22.7615 9.71997C22.5956 9.88386 22.5956 9.88386 22.5423 10.1028C22.5484 10.1468 22.5544 10.1907 22.5606 10.236C22.5669 10.2849 22.5733 10.3339 22.5798 10.3843C22.591 10.4619 22.591 10.4619 22.6025 10.541C22.613 10.6202 22.613 10.6202 22.6237 10.7011C22.6608 10.9782 22.7018 11.2547 22.7432 11.5313C22.8011 11.9361 22.8436 12.2613 22.5938 12.6094C22.4306 12.7725 22.2848 12.8138 22.0605 12.832C21.6612 12.8173 21.3396 12.6125 21 12.4219C20.8815 12.3559 20.7628 12.2903 20.6437 12.2256C20.5663 12.1834 20.4892 12.1405 20.4127 12.0967C20.3772 12.0773 20.3418 12.0579 20.3053 12.0379C20.2587 12.0117 20.2587 12.0117 20.2112 11.9849C20.0059 11.9208 19.8486 11.9906 19.6594 12.0777C19.5973 12.1105 19.5355 12.1437 19.4738 12.1772C19.4057 12.2132 19.3376 12.2491 19.2696 12.2851C19.1634 12.3417 19.0574 12.3985 18.9515 12.4555C18.8484 12.5106 18.7451 12.5651 18.6418 12.6196C18.5949 12.6452 18.5949 12.6452 18.5471 12.6713C18.3178 12.7919 18.1007 12.8645 17.837 12.8275C17.5228 12.7229 17.3879 12.5957 17.2324 12.2988C17.1399 11.7993 17.2976 11.2297 17.3731 10.7336C17.443 10.3365 17.443 10.3365 17.4375 9.9375C17.3488 9.81098 17.3488 9.81098 17.2236 9.70606C17.0732 9.56623 16.9288 9.42908 16.7959 9.27246C16.6932 9.15216 16.5873 9.03965 16.4736 8.92969C16.2162 8.67636 15.9804 8.42315 15.9727 8.04785C15.977 7.77729 16.0573 7.62155 16.2393 7.4209C16.6026 7.14133 17.2102 7.12273 17.6484 7.0459C17.7069 7.03536 17.7654 7.02481 17.8257 7.01395C18.2569 6.9375 18.2569 6.9375 18.4688 6.9375C18.4806 6.89868 18.4925 6.85986 18.5048 6.81987C18.5699 6.63538 18.6499 6.46374 18.7361 6.28839C18.753 6.25397 18.7699 6.21955 18.7873 6.18409C18.8229 6.11167 18.8587 6.0393 18.8946 5.96698C18.949 5.85691 19.0025 5.74642 19.056 5.6359C19.0909 5.56528 19.1259 5.49469 19.1609 5.42413C19.1844 5.37498 19.1844 5.37498 19.2084 5.32483C19.4441 4.85759 19.847 4.65797 20.3555 4.83399ZM19.9688 5.76563C19.9428 5.81885 19.9168 5.87207 19.89 5.92691C19.7933 6.12449 19.696 6.32175 19.5985 6.51893C19.5564 6.60428 19.5145 6.68972 19.4728 6.77524C19.4127 6.89821 19.3521 7.02088 19.2913 7.14349C19.2727 7.18173 19.2542 7.21997 19.2352 7.25936C19.2173 7.29502 19.1995 7.33067 19.1812 7.3674C19.1658 7.39873 19.1504 7.43006 19.1345 7.46234C19.0451 7.59647 18.9452 7.67033 18.7916 7.71865C18.7385 7.72817 18.7385 7.72817 18.6843 7.73789C18.6238 7.74914 18.6238 7.74914 18.5621 7.76061C18.5189 7.76809 18.4758 7.77556 18.4314 7.78327C18.3869 7.79139 18.3424 7.79951 18.2966 7.80788C18.1549 7.83367 18.013 7.85874 17.8711 7.88379C17.7748 7.90117 17.6786 7.91859 17.5823 7.93607C17.3467 7.97875 17.1109 8.02079 16.875 8.0625C17.0226 8.23599 17.1701 8.40899 17.326 8.5752C17.3553 8.6065 17.3847 8.6378 17.4149 8.67004C17.4446 8.70159 17.4743 8.73313 17.5049 8.76563C17.5344 8.79717 17.5639 8.82871 17.5943 8.86121C17.7635 9.04132 17.9353 9.21703 18.1145 9.38727C18.2465 9.5346 18.3253 9.64399 18.335 9.84557C18.3299 9.8976 18.3248 9.94963 18.3195 10.0032C18.314 10.0611 18.3084 10.119 18.3027 10.1786C18.2684 10.4673 18.2284 10.7547 18.1846 11.042C18.1673 11.1563 18.1501 11.2706 18.1331 11.385C18.1256 11.4345 18.118 11.4841 18.1102 11.5352C18.0951 11.6606 18.0906 11.7801 18.0938 11.9063C18.1652 11.8705 18.2366 11.8348 18.3081 11.799C18.3733 11.7665 18.4385 11.734 18.5038 11.7017C18.7075 11.6007 18.9093 11.4968 19.11 11.3899C19.1552 11.3662 19.2004 11.3426 19.247 11.3182C19.3362 11.2715 19.425 11.2241 19.5133 11.1759C19.5548 11.1544 19.5964 11.1328 19.6392 11.1107C19.6756 11.0912 19.7121 11.0717 19.7497 11.0517C20.0525 10.9646 20.3064 11.0735 20.5724 11.2159C20.6157 11.2388 20.6157 11.2388 20.6599 11.262C20.7511 11.3102 20.8419 11.3592 20.9326 11.4082C21.0236 11.4567 21.1147 11.5051 21.2058 11.5534C21.2885 11.5972 21.3709 11.6415 21.4533 11.6859C21.6125 11.7672 21.7724 11.8377 21.9375 11.9063C21.9232 11.7959 21.9089 11.6855 21.8946 11.5752C21.8821 11.4787 21.8696 11.3822 21.8573 11.2857C21.8249 11.0351 21.7909 10.785 21.7529 10.5352C21.7461 10.4889 21.7392 10.4426 21.7321 10.3949C21.7189 10.3064 21.7052 10.2179 21.6909 10.1296C21.6341 9.74402 21.6341 9.74402 21.75 9.5625C21.8499 9.44168 21.9572 9.32921 22.0664 9.2168C22.1297 9.15053 22.193 9.08424 22.2563 9.01795C22.2887 8.98418 22.3211 8.95042 22.3545 8.91564C22.513 8.74989 22.669 8.58195 22.8252 8.41406C22.8803 8.35497 22.9354 8.29589 22.9905 8.23682C23.0298 8.19476 23.069 8.15271 23.1094 8.10938C22.9275 7.99807 22.7271 7.97334 22.5205 7.93799C22.4817 7.93106 22.4429 7.92413 22.4029 7.917C22.279 7.89491 22.1552 7.87319 22.0312 7.85156C21.8681 7.82309 21.705 7.79423 21.542 7.76514C21.5046 7.75874 21.4672 7.75234 21.4286 7.74575C21.0076 7.67053 21.0076 7.67053 20.8974 7.51517C20.8823 7.48388 20.8672 7.45258 20.8516 7.42034C20.8341 7.38484 20.8165 7.34933 20.7985 7.31275C20.7803 7.27442 20.7621 7.23609 20.7433 7.1966C20.7144 7.13766 20.7144 7.13766 20.6849 7.07753C20.6234 6.952 20.5626 6.82613 20.502 6.7002C20.4409 6.57414 20.3796 6.44818 20.318 6.32236C20.2798 6.24406 20.2418 6.1656 20.2041 6.08699C20.1869 6.05163 20.1697 6.01628 20.1519 5.97985C20.1369 5.94859 20.1218 5.91733 20.1063 5.88513C20.0661 5.80387 20.0661 5.80387 19.9688 5.76563Z" fill="#99171C"/>
<path d="M4.39453 4.85156C4.75238 5.09976 4.92984 5.62649 5.11936 6.00776C5.17133 6.11219 5.22369 6.21641 5.27609 6.32062C5.30923 6.38695 5.34234 6.4533 5.37543 6.51965C5.3911 6.5508 5.40677 6.58196 5.42291 6.61405C5.53125 6.83297 5.53125 6.83297 5.53125 6.9375C5.59288 6.94252 5.65452 6.94753 5.71802 6.9527C6.0351 6.9846 6.3476 7.04003 6.66078 7.09778C6.76208 7.11628 6.86351 7.13387 6.96496 7.15146C7.03028 7.1634 7.09559 7.17539 7.16089 7.18744C7.21927 7.19794 7.27766 7.20845 7.33781 7.21927C7.61937 7.29975 7.80343 7.44871 7.96875 7.6875C8.01112 7.81463 8.02461 7.89862 8.02734 8.03027C8.02915 8.08221 8.02915 8.08221 8.031 8.13519C7.99308 8.41825 7.81727 8.61105 7.62597 8.80957C7.60181 8.83518 7.57765 8.86079 7.55276 8.88717C7.50066 8.94238 7.44844 8.99748 7.39611 9.05246C7.27759 9.17744 7.16041 9.30364 7.04312 9.42976C6.95856 9.52067 6.87393 9.61149 6.78918 9.70221C6.76576 9.7273 6.74234 9.75239 6.71821 9.77823C6.66719 9.83218 6.615 9.885 6.5625 9.9375C6.5532 10.4372 6.65669 10.9431 6.73663 11.4347C6.84485 12.1419 6.84485 12.1419 6.6709 12.4834C6.52026 12.6585 6.40459 12.7717 6.17174 12.8192C5.67133 12.8538 5.29978 12.6082 4.87793 12.3721C4.76735 12.3109 4.65662 12.2501 4.54542 12.1901C4.4767 12.1529 4.40833 12.1151 4.34039 12.0765C4.20802 12.0043 4.10828 11.9521 3.95558 11.9571C3.82179 12.0084 3.69527 12.0664 3.56744 12.1313C3.48863 12.171 3.48863 12.171 3.40823 12.2116C3.35376 12.2394 3.29929 12.2672 3.24316 12.2959C3.18923 12.3232 3.1353 12.3505 3.07974 12.3786C2.88888 12.4752 2.69818 12.572 2.50764 12.6692C2.23414 12.8078 2.05466 12.8776 1.75488 12.791C1.52022 12.7041 1.37788 12.5808 1.25098 12.3633C1.17288 12.0509 1.22315 11.7229 1.27167 11.4088C1.28256 11.3341 1.29346 11.2594 1.30435 11.1847C1.32164 11.0688 1.33905 10.9529 1.35652 10.8369C1.37346 10.7239 1.38996 10.6108 1.40643 10.4976C1.4118 10.463 1.41717 10.4284 1.4227 10.3927C1.45745 10.1613 1.45745 10.1613 1.40625 9.9375C1.33313 9.83852 1.33313 9.83852 1.23633 9.73828C1.19874 9.69768 1.16116 9.65707 1.12244 9.61524C1.07645 9.56637 1.03043 9.51755 0.984374 9.46875C0.894476 9.37309 0.804613 9.2774 0.714774 9.18169C0.653476 9.11648 0.592064 9.05138 0.530524 8.98641C0.186762 8.62221 -0.0211756 8.39911 -0.0161145 7.87592C0.0070734 7.67223 0.0770712 7.53758 0.234374 7.40625C0.461734 7.27494 0.672852 7.22512 0.927794 7.18176C0.966599 7.17479 1.0054 7.16782 1.04539 7.16063C1.16853 7.13858 1.29178 7.11712 1.41504 7.0957C1.53878 7.07384 1.66249 7.05185 1.7862 7.02977C1.86296 7.01611 1.93975 7.00259 2.01658 6.98923C2.16105 6.96382 2.29811 6.93709 2.4375 6.89063C2.4895 6.81808 2.4895 6.81808 2.53001 6.72625C2.54677 6.6915 2.56354 6.65675 2.5808 6.62095C2.59853 6.58311 2.61626 6.54527 2.63452 6.50629C2.67314 6.42654 2.71178 6.3468 2.75043 6.26706C2.81075 6.14119 2.87083 6.0152 2.93058 5.88905C2.98845 5.76732 3.04727 5.64607 3.1062 5.52484C3.12355 5.48748 3.14089 5.45011 3.15877 5.41162C3.28093 5.16177 3.42257 4.98298 3.65625 4.82813C3.90124 4.74646 4.1588 4.73421 4.39453 4.85156ZM3.98437 5.76563C3.93669 5.85531 3.88904 5.94501 3.84153 6.03479C3.79962 6.11396 3.75758 6.19306 3.71541 6.2721C3.60238 6.48549 3.49408 6.69971 3.39331 6.91919C3.37351 6.96147 3.35372 7.00376 3.33332 7.04732C3.29543 7.12878 3.25853 7.21072 3.22277 7.29314C3.20521 7.33047 3.18765 7.36779 3.16955 7.40625C3.15486 7.43912 3.14017 7.47199 3.12504 7.50586C2.92073 7.7356 2.53587 7.76931 2.2456 7.81989C2.2066 7.82697 2.16759 7.83405 2.1274 7.84135C2.00426 7.86364 1.88104 7.88544 1.75781 7.90723C1.6737 7.92236 1.58959 7.93753 1.50549 7.95273C1.3006 7.98969 1.09564 8.02621 0.890624 8.0625C1.08542 8.33935 1.30112 8.57726 1.54394 8.8125C1.73453 8.9982 1.92371 9.18479 2.1037 9.38086C2.12965 9.40902 2.15561 9.43718 2.18235 9.46619C2.36013 9.7193 2.34814 9.94521 2.30163 10.2391C2.2963 10.2764 2.29096 10.3137 2.28547 10.3522C2.2684 10.4709 2.25046 10.5894 2.23242 10.708C2.21487 10.8264 2.1975 10.9449 2.18038 11.0633C2.16971 11.1369 2.15877 11.2103 2.14751 11.2837C2.11646 11.4938 2.10416 11.6939 2.10937 11.9063C2.21589 11.8537 2.32232 11.8009 2.42871 11.748C2.47851 11.7234 2.47851 11.7234 2.52933 11.6982C2.7196 11.6034 2.9078 11.5057 3.0943 11.4036C3.13325 11.3825 3.17221 11.3613 3.21234 11.3395C3.28794 11.2983 3.36328 11.2566 3.43832 11.2143C3.87355 10.978 3.87355 10.978 4.125 11.0156C4.35152 11.1012 4.56233 11.2122 4.77539 11.3262C4.8329 11.3561 4.89046 11.386 4.94806 11.4157C5.05956 11.4735 5.17074 11.5317 5.28181 11.5903C5.48848 11.6986 5.69701 11.803 5.90625 11.9063C5.88381 11.4068 5.81416 10.9195 5.73619 10.426C5.72796 10.3731 5.71972 10.3201 5.71124 10.2656C5.70368 10.2183 5.69613 10.1709 5.68834 10.1221C5.6449 9.75883 5.6449 9.75883 5.71692 9.61011C5.8992 9.3825 6.09839 9.17799 6.30688 8.97418C6.43554 8.84573 6.5538 8.71112 6.67163 8.57282C6.78064 8.4498 6.89847 8.33685 7.01788 8.224C7.08851 8.15968 7.08851 8.15968 7.07812 8.0625C7.01971 8.05237 6.9613 8.04224 6.90112 8.0318C6.68386 7.99386 6.46683 7.95469 6.24986 7.91516C6.15603 7.89824 6.06214 7.88165 5.9682 7.8654C5.83293 7.84194 5.69793 7.8173 5.56293 7.79242C5.52107 7.78543 5.47922 7.77843 5.43609 7.77123C5.18053 7.72264 5.03761 7.66896 4.875 7.45313C4.79819 7.32585 4.73218 7.1949 4.66754 7.0611C4.64914 7.02397 4.63075 6.98685 4.61179 6.9486C4.55357 6.83086 4.49602 6.7128 4.43848 6.59473C4.39894 6.51448 4.35936 6.43424 4.31973 6.35404C4.22307 6.15814 4.127 5.96197 4.03125 5.76563C4.01578 5.76563 4.00031 5.76563 3.98437 5.76563Z" fill="#99171C"/>
</g>
<defs>
<clipPath id="clip0_28_14">
<rect width="24" height="24" fill="white"/>
</clipPath>
</defs>
</svg>
