<svg width="24" height="24" viewBox="0 0 24 24" fill="none" xmlns="http://www.w3.org/2000/svg">
<path d="M12 10.8889C14.7778 10.8889 17.1389 10.4537 19.0833 9.58333C21.0278 8.71296 22 7.66666 22 6.44444C22 5.22222 21.0278 4.17592 19.0833 3.30555C17.1389 2.43518 14.7778 2 12 2C9.22222 2 6.86111 2.43518 4.91667 3.30555C2.97222 4.17592 2 5.22222 2 6.44444C2 7.66666 2.97222 8.71296 4.91667 9.58333C6.86111 10.4537 9.22222 10.8889 12 10.8889ZM12 13.6667C12.7593 13.6667 13.7085 13.5878 14.8478 13.43C15.987 13.2722 17.0841 13.0178 18.1389 12.6667C19.1937 12.3155 20.1011 11.8574 20.8611 11.2922C21.6211 10.727 22.0007 10.037 22 9.22221V12C22 12.8148 21.6204 13.5048 20.8611 14.07C20.1019 14.6352 19.1944 15.0933 18.1389 15.4444C17.0833 15.7955 15.9863 16.0504 14.8478 16.2089C13.7093 16.3674 12.76 16.4459 12 16.4444C11.24 16.4429 10.2911 16.3641 9.15333 16.2078C8.01555 16.0515 6.91815 15.797 5.86111 15.4444C4.80407 15.0918 3.89667 14.6337 3.13889 14.07C2.38111 13.5063 2.00148 12.8163 2 12V9.22221C2 10.037 2.37963 10.727 3.13889 11.2922C3.89815 11.8574 4.80556 12.3155 5.86111 12.6667C6.91667 13.0178 8.01407 13.2726 9.15333 13.4311C10.2926 13.5896 11.2415 13.6681 12 13.6667ZM12 19.2222C12.7593 19.2222 13.7085 19.1433 14.8478 18.9855C15.987 18.8278 17.0841 18.5733 18.1389 18.2222C19.1937 17.8711 20.1011 17.4129 20.8611 16.8478C21.6211 16.2826 22.0007 15.5926 22 14.7778V17.5555C22 18.3704 21.6204 19.0604 20.8611 19.6255C20.1019 20.1907 19.1944 20.6489 18.1389 21C17.0833 21.3511 15.9863 21.6059 14.8478 21.7644C13.7093 21.9229 12.76 22.0015 12 22C11.24 21.9985 10.2911 21.9196 9.15333 21.7633C8.01555 21.607 6.91815 21.3526 5.86111 21C4.80407 20.6474 3.89667 20.1892 3.13889 19.6255C2.38111 19.0618 2.00148 18.3718 2 17.5555V14.7778C2 15.5926 2.37963 16.2826 3.13889 16.8478C3.89815 17.4129 4.80556 17.8711 5.86111 18.2222C6.91667 18.5733 8.01407 18.8281 9.15333 18.9866C10.2926 19.1452 11.2415 19.2237 12 19.2222Z" fill="white"/>
</svg>
