<svg width="24" height="24" viewBox="0 0 24 24" fill="none" xmlns="http://www.w3.org/2000/svg">
<path d="M17.25 10.5C19.0402 10.5 20.7571 11.2112 22.023 12.477C23.2888 13.7429 24 15.4598 24 17.25C24 19.0402 23.2888 20.7571 22.023 22.023C20.7571 23.2888 19.0402 24 17.25 24C15.4598 24 13.7429 23.2888 12.477 22.023C11.2112 20.7571 10.5 19.0402 10.5 17.25C10.5 15.4598 11.2112 13.7429 12.477 12.477C13.7429 11.2112 15.4598 10.5 17.25 10.5ZM17.964 13.29C17.9207 13.1339 17.8274 12.9963 17.6984 12.8983C17.5695 12.8003 17.412 12.7472 17.25 12.7472C17.088 12.7472 16.9305 12.8003 16.8016 12.8983C16.6726 12.9963 16.5793 13.1339 16.536 13.29L15.8205 15.5895H13.503C12.7755 15.5895 12.4725 16.5585 13.0605 17.004L14.9355 18.4245L14.2185 20.7225C13.9935 21.4425 14.787 22.0425 15.375 21.597L17.25 20.1765L19.125 21.597C19.713 22.0425 20.505 21.4425 20.28 20.7225L19.5645 18.4245L21.4395 17.004C22.0275 16.5585 21.7245 15.5895 20.997 15.5895H18.6795L17.964 13.29ZM10.887 12C9.66522 13.4765 8.99776 15.3335 9 17.25C9 17.9775 9.093 18.6825 9.27 19.353C8.68521 19.4519 8.09309 19.5011 7.5 19.5C5.7375 19.5 4.095 19.092 2.8665 18.345C1.6365 17.595 0.75 16.4475 0.75 15C0.75 14.2044 1.06607 13.4413 1.62868 12.8787C2.19129 12.3161 2.95435 12 3.75 12H10.887ZM7.5 2.25C8.59402 2.25 9.64323 2.6846 10.4168 3.45818C11.1904 4.23177 11.625 5.28098 11.625 6.375C11.625 7.46902 11.1904 8.51823 10.4168 9.29182C9.64323 10.0654 8.59402 10.5 7.5 10.5C6.40598 10.5 5.35677 10.0654 4.58318 9.29182C3.8096 8.51823 3.375 7.46902 3.375 6.375C3.375 5.28098 3.8096 4.23177 4.58318 3.45818C5.35677 2.6846 6.40598 2.25 7.5 2.25ZM17.253 3.7455C17.6966 3.74511 18.1359 3.83216 18.5458 4.00169C18.9557 4.17122 19.3282 4.41989 19.642 4.73348C19.9557 5.04708 20.2045 5.41945 20.3742 5.82929C20.5439 6.23913 20.6312 6.67841 20.631 7.122C20.6308 7.96021 20.3173 8.76807 19.752 9.387C18.9429 9.13004 18.0989 8.9995 17.25 9C16.4016 8.99917 15.5582 9.1292 14.7495 9.3855C14.3124 8.90068 14.0251 8.29958 13.9224 7.65492C13.8197 7.01026 13.906 6.34966 14.1708 5.75301C14.4357 5.15636 14.8677 4.64923 15.4147 4.29295C15.9617 3.93668 16.6002 3.74653 17.253 3.7455Z" fill="#99171C"/>
</svg>
