<svg width="24" height="24" viewBox="0 0 24 24" fill="none" xmlns="http://www.w3.org/2000/svg">
<path d="M12 21.127L1 18.127L6.493 16.688M12 21.127L23 18.127M12 21.127V23.188M1 22.688V18.252M23 18.252V22.688M15.5 6.062C15.5 7.995 14.917 13.062 12 13.062C9.083 13.062 8.5 8 8.5 6.062C8.5 2.562 12 0.811996 12 0.811996C12 0.811996 15.5 2.562 15.5 6.062Z" stroke="white" stroke-width="1.5" stroke-linecap="round" stroke-linejoin="round"/>
<path d="M12 5.937C11.8674 5.937 11.7402 5.88432 11.6464 5.79055C11.5527 5.69678 11.5 5.5696 11.5 5.437C11.5 5.30439 11.5527 5.17721 11.6464 5.08344C11.7402 4.98967 11.8674 4.937 12 4.937M12 5.937C12.1326 5.937 12.2598 5.88432 12.3536 5.79055C12.4473 5.69678 12.5 5.5696 12.5 5.437C12.5 5.30439 12.4473 5.17721 12.3536 5.08344C12.2598 4.98967 12.1326 4.937 12 4.937" stroke="white" stroke-width="1.5"/>
<path d="M10.01 17.881V16.873C10.0902 16.3958 10.3393 15.9633 10.7119 15.6544C11.0845 15.3456 11.5557 15.181 12.0395 15.1907C12.5234 15.2004 12.9876 15.3838 13.3475 15.7073C13.7074 16.0308 13.939 16.4729 14 16.953V17.881M9.68301 12.161L8.87501 12.566C8.41853 12.8091 8.0001 13.1177 7.63301 13.482C7.54525 13.5761 7.43164 13.6422 7.30644 13.672C7.18125 13.7017 7.05005 13.6939 6.92932 13.6493C6.80859 13.6048 6.70372 13.5255 6.62787 13.4216C6.55202 13.3176 6.50858 13.1936 6.50301 13.065C6.41795 12.3158 6.57784 11.5591 6.95875 10.9084C7.33966 10.2576 7.92109 9.7477 8.61601 9.45499M14.317 12.161L15.125 12.566C15.582 12.809 16 13.117 16.367 13.482C16.455 13.5756 16.5686 13.6413 16.6936 13.6708C16.8186 13.7003 16.9496 13.6923 17.0701 13.6478C17.1907 13.6034 17.2954 13.5244 17.3714 13.4207C17.4473 13.317 17.491 13.1933 17.497 13.065C17.5821 12.3158 17.4222 11.5591 17.0413 10.9084C16.6604 10.2576 16.0789 9.7477 15.384 9.45499M23 18.127L17.507 16.688" stroke="white" stroke-width="1.5" stroke-linecap="round" stroke-linejoin="round"/>
</svg>
