<svg width="26" height="23" viewBox="0 0 26 23" fill="none" xmlns="http://www.w3.org/2000/svg">
<path d="M13 0C10.4 0 8.66667 1.53975 8.66667 3.0795C8.66667 5.38912 9.53333 6.92887 10.4 7.69874V8.46862H15.6V7.69874C16.4667 6.92887 17.3333 5.38912 17.3333 3.0795C17.3333 1.53975 15.6 0 13 0ZM9.555 3.14349L13 4.16213L16.445 3.14349L14.3217 7.85753L13.4117 7.53996L14.755 4.55669L13 5.07636L11.245 4.55669L12.5883 7.53996L11.6783 7.85753L9.555 3.14349ZM5.04292 6.94812C3.77542 7.09247 2.62708 8.41569 2.62708 10.119C2.62708 11.0621 2.99542 11.8946 3.53167 12.472L4.17625 13.1552L3.185 13.3188C2.48625 13.4391 1.97708 13.7663 1.53833 14.3004C1.09958 14.8345 0.76375 15.5755 0.530833 16.4368C0.108333 17.9862 0.0108333 19.882 0 21.5565H2.31833L2.43967 23H8.32L8.42833 21.5565H10.6383C10.6383 19.8628 10.6167 17.9429 10.2321 16.3743C10.0154 15.513 9.69583 14.772 9.25167 14.2427C8.8075 13.7134 8.27125 13.3862 7.48583 13.2803L6.48375 13.1408L7.1175 12.4335C7.63208 11.8609 7.97875 11.0381 7.97875 10.119C7.97875 8.30021 6.70042 6.95293 5.30292 6.95293L5.04292 6.94812ZM20.4046 6.94812C19.1371 7.09247 17.9888 8.41569 17.9888 10.119C17.9888 11.0621 18.3571 11.8946 18.8933 12.472L19.5379 13.1552L18.5467 13.3188C17.8479 13.4391 17.3388 13.7663 16.9 14.3004C16.4613 14.8345 16.1254 15.5755 15.8925 16.4368C15.47 17.9862 15.3725 19.882 15.3617 21.5565H17.68L17.7992 23H23.6817L23.79 21.5565H26C26 19.8628 25.9783 17.9429 25.5938 16.3743C25.3771 15.513 25.0575 14.772 24.6133 14.2427C24.1692 13.7134 23.6329 13.3862 22.8475 13.2803L21.8454 13.1408L22.4792 12.4335C22.9937 11.8609 23.3404 11.0381 23.3404 10.119C23.3404 8.30021 22.0621 6.95293 20.6646 6.95293L20.4046 6.94812ZM10.4 9.28661V10.1527H15.6V9.28661H10.4ZM11.2667 10.9226V11.7887H14.7333V10.9226H11.2667Z" fill="#99171C"/>
</svg>
