<svg width="24" height="24" viewBox="0 0 24 24" fill="none" xmlns="http://www.w3.org/2000/svg">
<path d="M5.25 3.75V3C4.83579 3 4.5 3.33579 4.5 3.75H5.25ZM5.25 21.75H4.5C4.5 22.1642 4.83579 22.5 5.25 22.5V21.75ZM18.75 21.75V22.5C19.1642 22.5 19.5 22.1642 19.5 21.75H18.75ZM18.75 3.75H19.5C19.5 3.33579 19.1642 3 18.75 3V3.75ZM7.5 15C7.08579 15 6.75 15.3358 6.75 15.75C6.75 16.1642 7.08579 16.5 7.5 16.5V15.75V15ZM16.5 16.5C16.9142 16.5 17.25 16.1642 17.25 15.75C17.25 15.3358 16.9142 15 16.5 15V15.75V16.5ZM11.25 14.25C11.25 13.8358 10.9142 13.5 10.5 13.5C10.0858 13.5 9.75 13.8358 9.75 14.25H10.5H11.25ZM9.75 17.25C9.75 17.6642 10.0858 18 10.5 18C10.9142 18 11.25 17.6642 11.25 17.25H10.5H9.75ZM7.5 10.5C7.08579 10.5 6.75 10.8358 6.75 11.25C6.75 11.6642 7.08579 12 7.5 12V11.25V10.5ZM16.5 12C16.9142 12 17.25 11.6642 17.25 11.25C17.25 10.8358 16.9142 10.5 16.5 10.5V11.25V12ZM14.25 9.75C14.25 9.33579 13.9142 9 13.5 9C13.0858 9 12.75 9.33579 12.75 9.75H13.5H14.25ZM12.75 12.75C12.75 13.1642 13.0858 13.5 13.5 13.5C13.9142 13.5 14.25 13.1642 14.25 12.75H13.5H12.75ZM9 5.25L8.27239 5.4319C8.35586 5.76578 8.65585 6 9 6V5.25ZM8.25 2.25V1.5C8.01905 1.5 7.80098 1.6064 7.65885 1.78844C7.51672 1.97048 7.46638 2.20785 7.52239 2.4319L8.25 2.25ZM15.75 2.25L16.4776 2.4319C16.5336 2.20785 16.4833 1.97048 16.3412 1.78844C16.199 1.6064 15.981 1.5 15.75 1.5V2.25ZM15 5.25V6C15.3442 6 15.6441 5.76578 15.7276 5.4319L15 5.25ZM9 3.75V3H5.25V3.75V4.5H9V3.75ZM5.25 3.75H4.5V21.75H5.25H6V3.75H5.25ZM5.25 21.75V22.5H18.75V21.75V21H5.25V21.75ZM18.75 21.75H19.5V3.75H18.75H18V21.75H18.75ZM18.75 3.75V3H15V3.75V4.5H18.75V3.75ZM7.5 15.75V16.5H16.5V15.75V15H7.5V15.75ZM10.5 14.25H9.75V17.25H10.5H11.25V14.25H10.5ZM7.5 11.25V12H16.5V11.25V10.5H7.5V11.25ZM13.5 9.75H12.75V12.75H13.5H14.25V9.75H13.5ZM9 5.25L9.72761 5.0681L8.97761 2.0681L8.25 2.25L7.52239 2.4319L8.27239 5.4319L9 5.25ZM8.25 2.25V3H15.75V2.25V1.5H8.25V2.25ZM15.75 2.25L15.0224 2.0681L14.2724 5.0681L15 5.25L15.7276 5.4319L16.4776 2.4319L15.75 2.25ZM15 5.25V4.5H9V5.25V6H15V5.25Z" fill="white"/>
</svg>
