<svg width="24" height="24" viewBox="0 0 24 24" fill="none" xmlns="http://www.w3.org/2000/svg">
<path fill-rule="evenodd" clip-rule="evenodd" d="M16.165 2.199C16.3185 2.2695 16.4595 2.3605 16.583 2.4675C15.9661 2.76847 15.3444 3.05935 14.718 3.34C14.1572 3.59302 13.588 3.82716 13.0115 4.042C12.752 4.136 12.524 4.2105 12.3375 4.26C12.1375 4.313 12.0325 4.325 12 4.325C11.9675 4.325 11.8625 4.313 11.663 4.26C11.476 4.21 11.248 4.136 10.9885 4.042C10.4121 3.82715 9.84316 3.59301 9.2825 3.34C8.65576 3.06013 8.034 2.76925 7.4175 2.4675C7.541 2.3605 7.6815 2.2695 7.8355 2.199C8.9435 1.6895 10.8895 0.875 12 0.875C13.11 0.875 15.0565 1.69 16.165 2.199ZM12.75 11.287V5.702C13.0111 5.62919 13.2692 5.54578 13.5235 5.452C14.133 5.22513 14.7347 4.97782 15.3275 4.7105C15.9448 4.43487 16.5574 4.14883 17.165 3.8525C17.2115 4.4075 17.25 5.1585 17.25 6.125C17.25 7.304 17.193 8.1615 17.1335 8.735C17.0725 9.32 16.6985 9.8055 16.1645 10.051C15.277 10.459 13.8525 11.0625 12.75 11.287ZM7.835 10.051C7.3015 9.806 6.9275 9.3195 6.8665 8.735C6.807 8.1615 6.75 7.304 6.75 6.125C6.75 5.158 6.7885 4.408 6.835 3.8525C7.44275 4.14841 8.05533 4.43428 8.6725 4.71C9.26534 4.97749 9.86702 5.22497 10.4765 5.452C10.7485 5.5505 11.0115 5.6375 11.25 5.702V11.287C10.1475 11.0625 8.723 10.459 7.835 10.051ZM10.165 12.824C10.3185 12.8945 10.4595 12.9855 10.583 13.093C9.96616 13.3939 9.34441 13.6846 8.718 13.965C8.15718 14.218 7.58803 14.4522 7.0115 14.667C6.752 14.761 6.524 14.8355 6.3375 14.885C6.1375 14.938 6.0325 14.95 6 14.95C5.9675 14.95 5.8625 14.938 5.663 14.885C5.476 14.835 5.248 14.761 4.9885 14.667C4.41214 14.4521 3.84316 14.218 3.2825 13.965C2.65577 13.6853 2.034 13.3946 1.4175 13.093C1.5415 12.985 1.68083 12.8953 1.8355 12.824C2.9435 12.3145 4.8895 11.5 6 11.5C7.11 11.5 9.0565 12.315 10.165 12.824ZM6.75 21.912V16.327C7.01112 16.2542 7.26916 16.1708 7.5235 16.077C8.13298 15.85 8.73466 15.6025 9.3275 15.335C9.94479 15.0595 10.5574 14.7737 11.165 14.4775C11.2115 15.0325 11.25 15.783 11.25 16.75C11.25 17.929 11.193 18.7865 11.1335 19.36C11.0725 19.945 10.6985 20.4305 10.165 20.676C9.277 21.084 7.8525 21.6875 6.75 21.912ZM1.835 20.676C1.3015 20.431 0.9275 19.9445 0.8665 19.36C0.807 18.7865 0.75 17.929 0.75 16.75C0.75 15.7835 0.7885 15.033 0.835 14.4775C1.4427 14.7737 2.05529 15.0597 2.6725 15.3355C3.26535 15.6028 3.86702 15.8501 4.4765 16.077C4.7485 16.1755 5.0115 16.2625 5.25 16.327V21.912C4.1475 21.6875 2.723 21.084 1.835 20.676ZM22.583 13.093C22.4572 12.9839 22.3164 12.8933 22.165 12.824C21.0565 12.3145 19.11 11.5 18 11.5C16.89 11.5 14.9435 12.315 13.835 12.824C13.6836 12.8933 13.5428 12.9839 13.417 13.093C14.0338 13.3939 14.6556 13.6846 15.282 13.965C15.8428 14.218 16.412 14.4522 16.9885 14.667C17.248 14.761 17.476 14.8355 17.6625 14.885C17.8625 14.938 17.9675 14.95 18 14.95C18.0325 14.95 18.1375 14.938 18.3375 14.885C18.524 14.835 18.7525 14.761 19.0115 14.667C19.5879 14.4521 20.1568 14.218 20.7175 13.965C21.3442 13.6853 21.9665 13.3946 22.583 13.093ZM18.75 16.3265V21.9115C19.8525 21.687 21.277 21.0835 22.165 20.6755C22.6985 20.4305 23.0725 19.944 23.1335 19.3595C23.193 18.786 23.25 17.9285 23.25 16.7495C23.253 15.9912 23.2247 15.233 23.165 14.477C22.5574 14.7734 21.9448 15.0595 21.3275 15.335C20.7346 15.6023 20.133 15.8496 19.5235 16.0765C19.2515 16.175 18.9885 16.2625 18.75 16.3265ZM12.8665 19.36C12.9275 19.945 13.3015 20.4305 13.835 20.676C14.723 21.084 16.1475 21.6875 17.25 21.912V16.327C16.9889 16.2542 16.7308 16.1708 16.4765 16.077C15.867 15.85 15.2653 15.6025 14.6725 15.335C14.0552 15.0595 13.4426 14.7737 12.835 14.4775C12.7753 15.2335 12.747 15.9917 12.75 16.75C12.75 17.929 12.807 18.7865 12.8665 19.36Z" fill="#99171C"/>
</svg>
