<svg width="24" height="24" viewBox="0 0 24 24" fill="none" xmlns="http://www.w3.org/2000/svg">
<path d="M9.13218 23.25C9.00652 23.2501 8.88236 23.2227 8.76843 23.1697C8.65449 23.1167 8.55355 23.0394 8.47268 22.9432C8.39182 22.847 8.333 22.7343 8.30036 22.6129C8.26772 22.4916 8.26205 22.3646 8.28375 22.2408V22.2356L9.6014 15H4.5C4.3584 15 4.21969 14.9599 4.09993 14.8843C3.98017 14.8088 3.88424 14.7009 3.82324 14.5731C3.76224 14.4453 3.73866 14.3029 3.75523 14.1622C3.7718 14.0216 3.82784 13.8885 3.91687 13.7784L14.1905 1.07812C14.3074 0.929681 14.4697 0.823626 14.6527 0.776176C14.8356 0.728725 15.029 0.742491 15.2034 0.815368C15.3777 0.888245 15.5234 1.01622 15.6181 1.17973C15.7129 1.34324 15.7514 1.53327 15.728 1.72078C15.728 1.73484 15.7242 1.74844 15.7219 1.7625L14.3995 9H19.5C19.6416 9.00001 19.7803 9.04011 19.9001 9.11566C20.0198 9.19121 20.1158 9.29912 20.1768 9.4269C20.2378 9.55469 20.2613 9.69713 20.2448 9.83776C20.2282 9.97839 20.1722 10.1115 20.0831 10.2216L9.80812 22.9219C9.72739 23.0239 9.62468 23.1064 9.50765 23.1632C9.39062 23.22 9.26228 23.2497 9.13218 23.25Z" fill="#99171C"/>
</svg>
