<svg width="24" height="24" viewBox="0 0 24 24" fill="none" xmlns="http://www.w3.org/2000/svg">
<path d="M17.5039 8.50111C17.504 7.94878 17.0562 7.50101 16.5039 7.50101H8.5C7.94772 7.50101 7.5 7.94872 7.5 8.50101V16.504C7.5 17.0563 7.94772 17.504 8.5 17.504H16.5031C17.0553 17.504 17.503 17.0564 17.5031 16.5041L17.5039 8.50111Z" fill="white"/>
<path d="M21.705 5.5C21.5945 5.5 21.505 5.41046 21.505 5.3V3.7C21.505 3.58954 21.4155 3.5 21.305 3.5H19.705C19.5945 3.5 19.505 3.41046 19.505 3.3V1.7C19.505 1.58954 19.4155 1.5 19.305 1.5H17.704C17.5935 1.5 17.504 1.58954 17.504 1.7V3.3C17.504 3.41046 17.4145 3.5 17.304 3.5H15.704C15.5935 3.5 15.504 3.41046 15.504 3.3V1.7C15.504 1.58954 15.4145 1.5 15.304 1.5H13.703C13.5925 1.5 13.503 1.58954 13.503 1.7V3.3C13.503 3.41046 13.4135 3.5 13.303 3.5H11.703C11.5925 3.5 11.503 3.41046 11.503 3.3V1.7C11.503 1.58954 11.4135 1.5 11.303 1.5H9.701C9.59054 1.5 9.501 1.58954 9.501 1.7V3.3C9.501 3.41046 9.41146 3.5 9.301 3.5H7.701C7.59054 3.5 7.501 3.41046 7.501 3.3V1.7C7.501 1.58954 7.41146 1.5 7.301 1.5H5.7C5.58954 1.5 5.5 1.58954 5.5 1.7V3.3C5.5 3.41046 5.41046 3.5 5.3 3.5H3.7C3.58954 3.5 3.5 3.58954 3.5 3.7V5.3C3.5 5.41046 3.41046 5.5 3.3 5.5H1.7C1.58954 5.5 1.5 5.58954 1.5 5.7V7.301C1.5 7.41146 1.58954 7.501 1.7 7.501H3.3C3.41046 7.501 3.5 7.59054 3.5 7.701V9.301C3.5 9.41146 3.41046 9.501 3.3 9.501H1.7C1.58954 9.501 1.5 9.59054 1.5 9.701V11.302C1.5 11.4125 1.58954 11.502 1.7 11.502H3.3C3.41046 11.502 3.5 11.5915 3.5 11.702V13.302C3.5 13.4125 3.41046 13.502 3.3 13.502H1.7C1.58954 13.502 1.5 13.5915 1.5 13.702V15.303C1.5 15.4135 1.58954 15.503 1.7 15.503H3.3C3.41046 15.503 3.5 15.5925 3.5 15.703V17.303C3.5 17.4135 3.41046 17.503 3.3 17.503H1.7C1.58954 17.503 1.5 17.5925 1.5 17.703V19.304C1.5 19.4145 1.58954 19.504 1.7 19.504H3.3C3.41046 19.504 3.5 19.5935 3.5 19.704V21.304C3.5 21.4145 3.58954 21.504 3.7 21.504H5.3C5.41046 21.504 5.5 21.5935 5.5 21.704V23.305C5.5 23.4155 5.58954 23.505 5.7 23.505H7.301C7.41146 23.505 7.501 23.4155 7.501 23.305V21.705C7.501 21.5945 7.59054 21.505 7.701 21.505H9.301C9.41146 21.505 9.501 21.5945 9.501 21.705V23.305C9.501 23.4155 9.59054 23.505 9.701 23.505H11.302C11.4125 23.505 11.502 23.4155 11.502 23.305V21.705C11.502 21.5945 11.5915 21.505 11.702 21.505H13.302C13.4125 21.505 13.502 21.5945 13.502 21.705V23.305C13.502 23.4155 13.5915 23.505 13.702 23.505H15.303C15.4135 23.505 15.503 23.4155 15.503 23.305V21.705C15.503 21.5945 15.5925 21.505 15.703 21.505H17.303C17.4135 21.505 17.503 21.5945 17.503 21.705V23.305C17.503 23.4155 17.5925 23.505 17.703 23.505H19.304C19.4145 23.505 19.504 23.4155 19.504 23.305V21.705C19.504 21.5945 19.5935 21.505 19.704 21.505H21.304C21.4145 21.505 21.504 21.4155 21.504 21.305V19.705C21.504 19.5945 21.5935 19.505 21.704 19.505H23.305C23.4155 19.505 23.505 19.4155 23.505 19.305V17.704C23.505 17.5935 23.4155 17.504 23.305 17.504H21.705C21.5945 17.504 21.505 17.4145 21.505 17.304V15.704C21.505 15.5935 21.5945 15.504 21.705 15.504H23.305C23.4155 15.504 23.505 15.4145 23.505 15.304V13.703C23.505 13.5925 23.4155 13.503 23.305 13.503H21.705C21.5945 13.503 21.505 13.4135 21.505 13.303V11.703C21.505 11.5925 21.5945 11.503 21.705 11.503H23.305C23.4155 11.503 23.505 11.4135 23.505 11.303V9.701C23.505 9.59054 23.4155 9.501 23.305 9.501H21.705C21.5945 9.501 21.505 9.41146 21.505 9.301V7.701C21.505 7.59054 21.5945 7.501 21.705 7.501H23.305C23.4155 7.501 23.505 7.41146 23.505 7.301V5.7C23.505 5.58954 23.4155 5.5 23.305 5.5H21.705ZM19.505 19.304C19.505 19.4144 19.4154 19.504 19.305 19.504H5.7C5.58954 19.504 5.5 19.4145 5.5 19.304V5.701C5.5 5.59054 5.58954 5.501 5.7 5.501H19.303C19.4135 5.501 19.503 5.59053 19.503 5.70097L19.505 19.304Z" fill="white"/>
</svg>
